<svg width="62" height="49" viewBox="0 0 62 49" fill="none" xmlns="http://www.w3.org/2000/svg">
<path fill-rule="evenodd" clip-rule="evenodd" d="M36.9631 3.87662C38.0613 3.90247 39.1181 4.0487 40.1668 4.22858C40.3241 4.25551 40.4768 4.28823 40.6298 4.32759C41.0268 4.42947 41.4205 4.57816 41.7857 4.77117C42.124 4.94957 42.4406 5.16614 42.7301 5.41418C42.9074 5.54734 43.0702 5.68378 43.2149 5.81789C43.4178 6.00572 43.5845 6.18913 43.7054 6.35217C43.9334 6.65055 44.1498 7.10165 44.241 7.34553C44.2846 7.43722 44.3193 7.52359 44.3501 7.6029C44.3748 7.66637 44.3969 7.7261 44.416 7.78019C44.5465 8.07305 44.6527 8.35622 44.756 8.63547C44.756 8.65619 44.7555 8.67739 44.7551 8.69833C44.7514 8.96494 44.8426 9.25771 44.9904 9.71001C45.055 9.90685 45.1312 10.1334 45.2178 10.4C45.2505 10.5008 45.2636 10.5766 45.2692 10.6385C45.2754 10.688 45.2766 10.7304 45.2769 10.7683C45.2771 10.7949 45.2765 10.8211 45.2774 10.8451C45.2808 10.9294 45.3264 11.0079 45.376 11.1002C45.4405 11.221 45.5139 11.3699 45.5062 11.5795C45.4713 12.238 45.5409 12.5016 45.6092 12.7147C45.6279 12.7764 45.6438 12.8327 45.6527 12.8903C45.6816 13.0769 45.6442 13.3421 45.5931 13.5372C45.5535 13.6923 45.5627 14.0063 45.5801 14.246C45.5869 14.3365 45.5758 14.4579 45.5605 14.5988C45.5447 14.7455 45.5251 14.9139 45.5183 15.0963C45.5007 15.5558 45.4812 15.8013 45.4671 15.9962C45.4629 16.0525 45.4595 16.1041 45.4554 16.1561C45.4428 16.3197 45.4197 16.5224 45.3956 16.7253C45.3933 16.7448 45.3907 16.7644 45.3884 16.7835C45.3858 16.8064 45.3655 16.8719 45.359 16.895C45.3183 17.042 45.2565 17.1944 45.1953 17.3325C45.3044 17.3206 45.4241 17.3078 45.5333 17.2961C45.5618 17.2911 45.5916 17.2859 45.6207 17.2812C45.8349 17.2463 46.031 17.1895 46.2312 17.1327C46.2764 17.1197 46.3212 17.1069 46.3667 17.0942C46.714 16.9971 47.3964 16.9916 47.7707 16.9896C47.7773 16.9895 47.7848 16.9893 47.7914 16.9892C47.8804 16.9887 47.9642 16.985 48.063 16.9811C48.2975 16.9721 48.616 16.96 49.2793 16.9786C49.4714 16.9679 49.6648 16.9583 49.8574 16.95C51.7318 16.8747 53.598 16.8487 55.5202 16.9843C55.7426 17.0015 55.9552 17.0215 56.1794 17.0483C56.2063 17.0501 56.2348 17.0524 56.2642 17.0547C56.8189 17.1029 57.5204 17.1676 58.0864 17.5041C58.3357 17.65 58.6191 17.929 58.7283 18.2478C58.8379 18.5611 58.8108 18.7751 58.8089 18.8834C58.8038 18.965 58.8001 19.0411 58.7984 19.1133C58.8307 19.8163 59.0056 20.5445 59.2208 21.2882C59.4151 22.4326 59.2863 23.145 59.3012 24.0381C59.2955 24.553 59.2946 25.0676 59.3022 25.5809C59.303 25.6382 59.3035 25.6961 59.3046 25.7544C59.3123 26.1931 59.2979 26.6326 59.2479 27.0766C59.229 27.3712 59.1976 27.6561 59.1536 27.9191C59.0922 28.2889 59.0038 28.6185 58.905 28.8804C58.7047 29.4257 58.3497 29.9729 58.0492 30.3655C57.9637 30.4889 57.82 30.6131 57.7213 30.6736C57.6046 30.7476 57.5165 30.7875 57.4372 30.8238C57.026 31.0299 56.6646 31.1783 56.2901 31.3454L56.2058 31.3587C55.8492 31.4107 55.4505 31.5716 54.8189 31.8146C54.5446 31.9199 54.2244 32.0413 53.8443 32.1725C53.5996 32.2567 53.4616 32.2693 53.3501 32.2792C53.3174 32.2821 53.286 32.2851 53.2554 32.2892C53.1503 32.3036 53.0534 32.3612 52.9393 32.4286C52.7912 32.516 52.6117 32.6212 52.3453 32.6678C51.5691 32.8019 51.2163 32.9581 50.9607 33.0875C50.9369 33.0994 50.9137 33.1111 50.8915 33.1224C50.8149 33.1612 50.7432 33.1964 50.6695 33.2241C50.4285 33.315 50.0631 33.366 49.783 33.3772C49.5622 33.3877 49.1347 33.4903 48.8063 33.5675C48.6826 33.5972 48.511 33.6153 48.3105 33.6317C48.1029 33.6488 47.8621 33.6633 47.6069 33.6892C47.0032 33.7488 46.6679 33.762 46.4048 33.7762C46.3868 33.7771 46.3687 33.7786 46.3512 33.7795C46.2739 33.7832 46.2016 33.7865 46.1296 33.7897C45.9025 33.8 45.6202 33.8047 45.3354 33.8076C44.9944 33.8111 44.6482 33.8115 44.3846 33.819C44.1152 33.7988 43.8462 33.7747 43.5773 33.7507C43.5957 34.0194 43.6142 34.2882 43.6319 34.5582C43.6353 34.5795 43.6387 34.6021 43.6418 34.6224C43.6645 34.7781 43.7106 34.9236 43.7562 35.0703C43.7666 35.1033 43.777 35.1368 43.7872 35.1705C43.8648 35.4261 43.8336 35.92 43.8166 36.1914C43.8164 36.1964 43.816 36.2021 43.8157 36.2071C43.8117 36.272 43.8104 36.3333 43.8093 36.404C43.8068 36.5756 43.8032 36.8043 43.7546 37.2848C43.7566 37.4253 43.7581 37.5637 43.7583 37.7043C43.7586 37.9366 43.758 38.1683 43.7554 38.4025C43.7199 39.3524 43.7588 40.3437 43.2286 41.4677C42.9053 42.0585 42.5643 42.26 42.249 42.5096C42.2327 42.5232 42.2149 42.5373 42.1987 42.5507C41.8765 42.8166 41.4821 43.098 41.2166 43.2431C40.8792 43.4268 40.6465 43.5388 40.4559 43.6301C40.2812 43.7326 40.1071 43.8355 39.9341 43.9381C38.9842 44.5268 37.8616 44.7785 36.8385 44.8734C36.4487 44.9128 36.0634 44.9379 35.6817 44.96C35.6503 44.9619 35.6183 44.9643 35.5865 44.9661C35.2607 44.9843 34.9436 44.9993 34.6266 45.0119C34.4168 45.0342 34.2285 45.0577 34.043 45.0772C33.7922 45.1044 33.5634 45.124 33.368 45.1263C32.9084 45.133 32.3903 45.0697 31.9939 44.9945C31.9286 44.9823 31.869 44.97 31.8153 44.9588C31.4961 44.9195 31.1733 44.8661 30.8322 44.7597C30.8117 44.7457 30.7912 44.7316 30.7716 44.7169C30.6563 44.6327 30.526 44.5545 30.3676 44.448C30.2881 44.3943 30.2014 44.331 30.1163 44.2589C30.0944 44.2404 30.0715 44.2195 30.0515 44.2017C29.9727 44.1846 29.9273 44.1636 29.8735 44.1445C29.594 44.0271 29.3718 43.8799 29.1182 43.6841C28.9581 43.5576 28.8997 43.4617 28.8554 43.3882C28.842 43.3662 28.8287 43.3453 28.8149 43.3252C28.7697 43.258 28.6903 43.2174 28.6006 43.171C28.4817 43.1084 28.3416 43.0318 28.2266 42.8586C27.8703 42.3102 27.6437 42.14 27.4606 42.0112C27.407 41.972 27.3598 41.9382 27.3172 41.8972C27.178 41.7633 27.0451 41.5275 26.9647 41.3365C26.9003 41.1861 26.7004 40.9363 26.54 40.7473C26.4905 40.6895 26.4386 40.6078 26.3804 40.5084C26.3687 40.4884 26.3567 40.4669 26.3439 40.4449C26.2699 40.3169 26.1839 40.167 26.0805 40.0171C25.8184 39.6362 25.6838 39.4289 25.5755 39.2636C25.5449 39.2167 25.5164 39.173 25.4877 39.1289C25.3973 38.9902 25.2908 38.8131 25.1843 38.6343C25.0567 38.4203 24.9283 38.2014 24.8245 38.0373C24.7148 37.7936 24.6079 37.5481 24.5047 37.2986C24.4944 37.3188 24.4851 37.3398 24.4746 37.3598C23.9289 38.2218 23.2725 38.3734 22.7398 38.6389C22.7074 38.655 22.6753 38.6705 22.6426 38.6861C22.4031 38.7998 22.1912 38.9211 21.9793 39.0407C21.9348 39.0658 21.8907 39.0907 21.8452 39.1158C21.8408 39.1181 21.836 39.1197 21.8316 39.122C21.4005 39.3571 20.5309 39.4952 20.0736 39.5305C20.0651 39.5313 20.056 39.5324 20.0477 39.5332C19.9391 39.5431 19.8355 39.5546 19.716 39.5664C19.4302 39.5931 19.0407 39.6299 18.2501 39.6141C18.0212 39.6253 17.7926 39.6339 17.5643 39.6384C17.3635 39.6423 17.166 39.6437 16.9655 39.6438C14.697 39.6334 12.4291 39.4051 10.1987 38.7748C10.1679 38.7673 10.136 38.7594 10.1041 38.7514C9.62531 38.6334 9.057 38.4607 8.61501 38.2739C8.48836 38.2209 8.37479 38.1686 8.27401 38.118C7.69877 37.8265 7.3367 37.5788 7.04729 37.3696C5.80022 36.5606 4.76745 35.4651 3.92039 34.3342C3.59448 33.9062 3.27653 33.4636 3.00425 32.9617C2.76237 32.5244 2.58052 32.0016 2.49082 31.5224C2.46088 31.3746 2.43498 31.226 2.41448 31.0772C2.33277 30.4867 2.32876 29.8857 2.39125 29.2985C2.41335 28.955 2.45357 28.6301 2.50365 28.3324C2.57418 27.9139 2.66465 27.5482 2.75762 27.2547C2.94416 26.663 3.23132 26.0455 3.48484 25.5501C3.54097 25.4392 3.59806 25.3381 3.65305 25.2451C3.7077 25.1528 3.75934 25.0696 3.80892 24.9926C4.06056 24.5552 4.33527 24.1519 4.61641 23.7574C4.64088 23.7355 4.666 23.7131 4.69146 23.6908C5.00861 23.4148 5.31699 23.0194 5.81779 22.415C5.83039 22.3998 5.84313 22.3839 5.85595 22.3685C6.06878 22.1124 6.32086 21.8216 6.62947 21.499C6.84112 21.2785 6.97584 21.1907 7.08529 21.119C7.11758 21.0979 7.14803 21.0782 7.17744 21.0575C7.27851 20.9861 7.35392 20.8805 7.4457 20.7548C7.564 20.5927 7.70869 20.3982 7.96908 20.2168C8.79941 19.6455 9.10227 19.3304 9.33352 19.0773C9.40056 19.005 9.4635 18.9389 9.53203 18.8783C9.75372 18.6812 10.1194 18.466 10.4052 18.328C10.4297 18.3161 10.4565 18.302 10.4841 18.2865C10.7256 18.147 11.1114 17.8903 11.4425 17.7151C11.5812 17.6399 11.782 17.5622 12.0188 17.4915C12.2639 17.4178 12.5468 17.3523 12.8369 17.2789C13.0107 17.2348 13.164 17.1988 13.3002 17.1673C13.7431 17.0659 14.0266 17.0115 14.2653 16.9668C14.3552 16.9501 14.4369 16.9351 14.5209 16.9203C14.7838 16.8738 15.1129 16.8272 15.4463 16.7867C15.8442 16.7379 16.2523 16.6989 16.562 16.6665C16.8885 16.662 17.2106 16.6629 17.5354 16.6716C17.5194 16.6483 17.5042 16.6243 17.488 16.6009C17.4712 16.5773 17.4545 16.5531 17.4377 16.5288C17.3109 16.3439 17.2349 15.9406 17.1907 15.7184C17.1899 15.7144 17.189 15.7102 17.1882 15.7062C17.178 15.6543 17.1651 15.6046 17.1498 15.5461C17.1155 15.415 17.069 15.2345 17.0063 14.8615C17.0035 14.8464 17.0001 14.8306 16.9973 14.8151C16.9558 14.6754 16.9224 14.5358 16.8951 14.3963C16.62 12.8785 16.9433 11.5113 17.3115 10.2403C17.315 10.224 17.319 10.2072 17.3225 10.1905C17.3334 10.1399 17.3445 10.0875 17.3564 10.0342C17.4316 9.66029 17.6637 9.22586 17.8501 9.03213C17.9225 8.95167 17.9878 8.8876 18.0445 8.83456C18.2951 8.59162 18.3617 8.60739 18.4639 8.55044C18.5558 8.50999 18.63 8.48223 18.7006 8.45742C19.6988 8.03211 20.6332 7.73514 21.5799 7.36865C21.5893 7.36506 21.5994 7.36102 21.6088 7.35744C21.9102 7.24265 22.2122 7.1286 22.5146 7.0148C22.7932 6.90996 23.0733 6.80573 23.3545 6.70442C23.5139 6.63194 23.6657 6.56095 23.807 6.49616C24.0047 6.4053 24.1854 6.32572 24.3369 6.27377C24.7048 6.14703 25.143 6.06603 25.4758 6.02067C25.5304 6.01304 25.5802 6.00635 25.6288 6.00006C25.8901 5.94022 26.1557 5.8889 26.4384 5.85619C26.4579 5.86118 26.4778 5.86664 26.4975 5.87227C26.6923 5.92989 26.9112 5.92831 27.2574 5.98107C27.3608 5.99817 27.4709 6.02353 27.5869 6.06274C27.8203 6.14082 28.0791 6.2828 28.3084 6.50135C28.4553 6.64292 28.4915 6.74395 28.521 6.82253C28.5294 6.84578 28.537 6.86759 28.5454 6.88849C28.5744 6.96051 28.6377 7.00972 28.7108 7.07207C28.8048 7.15189 28.9164 7.2567 28.9651 7.43772C29.1066 8.00897 29.2352 8.20175 29.3561 8.35828C29.3898 8.40332 29.4202 8.44481 29.4434 8.489C29.4929 8.58283 29.5224 8.7112 29.54 8.83337C29.6683 8.65228 29.8217 8.47378 29.9282 8.35455C29.9315 8.35077 29.9352 8.34678 29.9385 8.34301C29.9831 8.29289 30.0233 8.24419 30.0707 8.18703C30.1839 8.05186 30.3368 7.86538 30.7006 7.52628C30.7941 7.41766 30.8903 7.30944 30.987 7.20421C31.6203 6.51391 32.3153 5.88721 33.0091 5.30603C33.5036 4.88764 34.063 4.50856 34.6915 4.23697C34.711 4.22706 34.7301 4.21682 34.7503 4.20679C34.8763 4.14431 35.0163 4.08115 35.1552 4.02614C35.5568 3.87884 35.8387 3.85647 36.065 3.84338C36.4776 3.83052 36.7434 3.85537 36.9631 3.87662ZM39.5746 5.16748C39.4513 5.15551 39.3118 5.15188 39.1734 5.14983C38.9664 5.14653 38.7656 5.14741 38.6256 5.12407C38.5735 5.1153 38.5308 5.09195 38.4868 5.0687L38.4775 5.06363C38.1356 5.05408 37.7934 5.05549 37.4564 5.07043C37.4269 5.07532 37.397 5.08025 37.3681 5.08519C37.2253 5.10931 37.0882 5.13566 37.0003 5.17199C36.9062 5.21126 36.6617 5.2411 36.4205 5.28694C36.2612 5.31667 36.1018 5.35386 35.986 5.39607C35.9172 5.42088 35.85 5.41448 35.7877 5.40917C35.7484 5.40554 35.7092 5.40347 35.6857 5.40652C35.6636 5.41233 35.6413 5.42063 35.6197 5.43091C35.5846 5.44772 35.548 5.47141 35.5112 5.49732C35.4787 5.5202 35.4445 5.54546 35.4081 5.56831C35.3738 5.5896 35.2897 5.61709 35.1825 5.65876C35.116 5.68461 35.04 5.71609 34.9623 5.75379C34.7751 5.88297 34.5941 6.02673 34.419 6.18116C34.392 6.22583 34.3746 6.27119 34.3681 6.31562C34.3638 6.34731 34.3647 6.38109 34.3658 6.4147C34.3678 6.46003 34.3698 6.50733 34.3594 6.55559C34.3516 6.59296 34.3298 6.62442 34.3056 6.63361C34.2942 6.63783 34.2817 6.6375 34.2707 6.63721C34.2581 6.63688 34.2458 6.63723 34.2384 6.64408C34.2366 6.64585 34.2356 6.6487 34.2345 6.65147L34.2201 6.70481C34.2153 6.71665 34.2072 6.72875 34.1951 6.74012C34.1064 6.82376 34.0016 6.91419 33.8994 7.00201C33.786 7.09935 33.6762 7.19467 33.5951 7.27761C33.5042 7.37047 33.3549 7.48009 33.2073 7.59219C33.1047 7.67 33.0022 7.74957 32.9203 7.82269C32.8397 7.89464 32.77 7.98365 32.7041 8.06972C32.6244 8.17368 32.549 8.27423 32.4617 8.33814C32.444 8.35073 32.4075 8.3532 32.362 8.35644C32.3298 8.35872 32.2924 8.36174 32.2543 8.36883C32.1631 8.46805 32.0709 8.56828 31.9805 8.66785C31.9799 8.67355 31.9798 8.68045 31.9793 8.68639L31.9658 8.79592C31.9469 8.91066 31.9027 9.03637 31.764 9.12638C31.7169 9.15705 31.6722 9.16412 31.6317 9.17019C31.592 9.17617 31.5556 9.18129 31.5267 9.20849C31.4941 9.23947 31.4735 9.29172 31.4516 9.34786C31.4211 9.42623 31.3876 9.51424 31.3124 9.5689C31.3072 9.57263 31.3008 9.57733 31.2951 9.58154C31.2401 9.62198 31.1594 9.6813 31.057 9.72555C30.9844 9.81276 30.9123 9.90151 30.8407 9.99028C30.7278 10.1307 30.6147 10.2712 30.5018 10.4112C30.2832 10.6825 30.0663 10.9549 29.85 11.2267C29.8504 11.234 29.8509 11.2413 29.8513 11.2485C29.8536 11.2977 29.8558 11.3424 29.8578 11.388C29.8641 11.5314 29.8645 11.709 29.8625 11.8884C29.8601 12.1031 29.8544 12.3207 29.8571 12.4869C29.8253 12.6998 29.7897 12.9121 29.7516 13.1233C29.7507 13.1395 29.7395 13.1864 29.737 13.2022C29.6745 13.4179 29.6014 13.6403 29.5139 13.8587C29.424 14.0846 29.2632 14.2754 29.082 14.3735C28.9004 14.4723 28.7172 14.4738 28.5724 14.3967C28.4271 14.3187 28.3275 14.1698 28.2766 13.9925C28.2263 13.8145 28.2266 13.6217 28.2746 13.4383C28.3166 13.2797 28.3492 13.118 28.3786 12.9503C28.3923 12.733 28.4044 12.5159 28.415 12.2995C28.4216 12.1659 28.4259 12.0324 28.4316 11.8991C28.353 11.8066 28.3075 11.6741 28.3024 11.5163C28.2956 11.3138 28.3572 11.0866 28.4689 10.8795C28.4699 10.8452 28.4717 10.8109 28.4726 10.7766C28.4816 10.4262 28.4842 10.0773 28.4652 9.75252C28.4632 9.7189 28.4612 9.68585 28.4587 9.65333C28.4462 9.60568 28.4329 9.55822 28.4194 9.51571L28.4575 9.66302C28.3213 9.37406 28.2432 9.17036 28.1815 9.00841C28.1218 8.84753 28.106 8.72672 28.0908 8.62442C28.0803 8.55429 28.07 8.49173 28.0471 8.43509C28.0346 8.40446 28.0163 8.36364 27.9938 8.31543C27.9026 8.11657 27.7341 7.8075 27.5987 7.58129C27.5391 7.4787 27.4753 7.36615 27.4018 7.27678C27.3018 7.15047 27.1674 7.06872 27.084 7.06766C27.0824 7.06761 27.0807 7.06801 27.0791 7.06804C26.923 7.06689 26.7076 7.0462 26.5044 7.04489C26.3117 7.04302 26.1344 7.05534 26.0404 7.09826C25.9265 7.15021 25.8251 7.1547 25.6689 7.1669C25.5622 7.17522 25.428 7.1879 25.2506 7.22488C25.0454 7.26792 24.895 7.28558 24.767 7.30143C24.5863 7.32427 24.4504 7.3434 24.2679 7.44004C24.066 7.54747 23.851 7.64671 23.671 7.69458C23.5893 7.71626 23.4984 7.74975 23.4042 7.78488C23.2792 7.83146 23.1479 7.8819 23.0226 7.91229C22.9187 7.9375 22.8256 7.93875 22.7427 7.94001C22.717 7.94039 22.6923 7.94065 22.6687 7.94177C22.59 7.97233 22.5103 8.00315 22.432 8.03478C22.4213 8.04444 22.4103 8.05531 22.3987 8.06612C22.339 8.1212 22.2656 8.18868 22.1658 8.24815C22.1024 8.28594 22.0394 8.31599 21.9764 8.34105C21.881 8.37892 21.7867 8.40582 21.6886 8.4337C21.5606 8.47003 21.4263 8.50806 21.2829 8.57293C21.1849 8.61727 21.0774 8.67586 20.9699 8.73433C20.8109 8.82092 20.6559 8.90597 20.5371 8.94303C20.4939 8.95631 20.4477 8.95366 20.4043 8.95038L20.3955 8.95028C20.126 9.0812 19.859 9.21425 19.6014 9.35284C19.5805 9.36815 19.5602 9.38333 19.5397 9.39842C19.4392 9.47256 19.3453 9.54543 19.2966 9.6087C19.2722 9.64007 19.2253 9.68015 19.1753 9.72275C19.1382 9.75082 19.0339 9.85821 19.1447 9.76425C19.1338 9.78027 19.1225 9.79598 19.1123 9.81145C19.0387 9.92267 18.9917 10.0163 18.9716 10.0933C18.9597 10.1381 18.9232 10.1647 18.886 10.1979C18.8514 10.2287 18.8165 10.2658 18.8064 10.3171C18.8021 10.3394 18.802 10.365 18.8031 10.3924C18.8029 10.3979 18.8032 10.4036 18.803 10.4091C18.8018 10.4478 18.8007 10.4886 18.7961 10.5303C18.7917 10.5692 18.7608 10.6507 18.7223 10.7554C18.6985 10.82 18.6716 10.8937 18.6466 10.9714C18.6143 11.1843 18.5858 11.3967 18.5618 11.6075C18.5724 11.6537 18.5897 11.6957 18.6147 11.73C18.6326 11.7545 18.6551 11.7765 18.6781 11.7988C18.7098 11.8294 18.7428 11.8614 18.7669 11.9012C18.7857 11.9323 18.7906 11.9665 18.778 11.9871C18.7722 11.9966 18.7621 12.0037 18.7536 12.0097C18.7442 12.0165 18.7355 12.0224 18.7343 12.031C18.7336 12.0374 18.7388 12.0458 18.7451 12.0549C18.7553 12.0696 18.7691 12.0887 18.7664 12.1146C18.7561 12.2109 18.7383 12.3186 18.7235 12.4242C18.707 12.5413 18.6942 12.6556 18.6939 12.7462C18.6935 12.8479 18.6652 12.9911 18.6426 13.1335C18.6267 13.2324 18.6132 13.3319 18.6109 13.4159C18.6087 13.4985 18.6273 13.5826 18.6478 13.6615C18.6724 13.7569 18.6988 13.8453 18.6913 13.9246C18.6896 13.9406 18.6689 13.9638 18.6426 13.9934C18.6238 14.0144 18.602 14.0389 18.5835 14.0658C18.6027 14.164 18.6248 14.2596 18.6496 14.3533C18.6538 14.3557 18.6582 14.3585 18.6625 14.3608L18.6791 14.3697C18.7822 14.4451 18.9095 14.5451 18.9015 14.7393C18.8989 14.7905 18.8782 14.8293 18.8596 14.8641C18.8414 14.898 18.825 14.9282 18.8297 14.9637C18.8353 15.0044 18.8639 15.045 18.8957 15.0918C18.9402 15.1571 18.989 15.2268 18.9864 15.3155C18.9861 15.3214 18.9861 15.3284 18.9859 15.3351C18.9838 15.3976 18.9802 15.4906 18.9497 15.5904C19.004 15.8477 19.0544 16.1074 19.0996 16.3673C19.1234 16.5042 19.1429 16.6419 19.1642 16.7796C19.2603 16.7869 19.3657 16.7986 19.4645 16.8183C19.7059 16.8668 19.8899 16.9399 20.0457 17.0213C20.3112 17.164 20.4535 17.3255 20.4516 17.4902C20.4495 17.6546 20.2776 17.8114 19.9791 17.9104C19.8093 17.9684 19.6004 18.0032 19.4086 18.0295C19.3604 18.0361 19.3117 18.0411 19.2608 18.0478C19.2394 18.1408 19.2091 18.2292 19.1633 18.3054C19.0612 18.476 18.9102 18.574 18.7494 18.5843C18.5882 18.5962 18.4273 18.5288 18.2907 18.4091C18.1866 18.3171 18.1022 18.1953 18.0444 18.0582C17.5516 18.06 17.0421 18.0855 16.5453 18.1206C15.5884 18.1905 14.6341 18.3081 13.6905 18.4627C13.6363 18.4716 13.5814 18.4806 13.5268 18.4899C12.9104 18.5947 12.3534 18.7017 11.863 18.9168C11.8075 18.9407 11.7523 18.9664 11.6972 18.9929C11.5174 19.1012 11.3415 19.2235 11.1745 19.349C10.9253 19.5343 10.6985 19.7076 10.5166 19.845C10.2588 20.0395 10.0566 20.1628 9.88498 20.2704C9.76765 20.3439 9.66351 20.4118 9.56781 20.4903C9.51603 20.5328 9.44617 20.5914 9.36257 20.6639C9.02149 20.9572 8.46455 21.4754 7.94846 21.9439C7.71835 22.151 7.44582 22.3893 7.19215 22.6246C7.01903 22.7851 6.85635 22.9427 6.71642 23.0868C6.56005 23.2481 6.4334 23.3881 6.36022 23.4888C6.11552 23.8258 5.80415 24.1854 5.5408 24.5081C5.28917 24.8154 5.08207 25.0901 4.99932 25.2663C4.90128 25.4762 4.78556 25.6341 4.63733 25.8684C4.60395 25.9216 4.56768 25.9805 4.53335 26.0426C4.45541 26.1865 4.36707 26.3561 4.2706 26.5653C4.104 26.9273 3.98186 27.1801 3.88156 27.3962C3.74211 27.7 3.6426 27.9341 3.58283 28.3012C3.51692 28.7094 3.46741 29.1285 3.41989 29.455C3.39773 29.6037 3.38613 29.7754 3.3825 29.9532C3.37739 30.1888 3.38694 30.4358 3.39215 30.6617C3.39636 30.8481 3.38659 31.0046 3.3821 31.1455C3.3807 31.1892 3.37998 31.2315 3.38036 31.2723C3.38456 31.2935 3.38964 31.3156 3.39409 31.3369C3.42076 31.4649 3.44971 31.5882 3.48453 31.7071C3.49585 31.7281 3.50865 31.7512 3.52164 31.7736C3.58775 31.888 3.67324 32.02 3.77014 32.1868C3.92432 32.4503 4.0536 32.6964 4.20704 32.9575C4.32642 33.1595 4.46156 33.3698 4.64373 33.5934C4.66947 33.625 4.69723 33.6583 4.7261 33.692C4.8339 33.8182 4.95349 33.9502 5.07337 34.0779C5.29886 34.319 5.5285 34.545 5.67334 34.7142C5.72687 34.7771 5.76376 34.8435 5.79919 34.9077L5.79907 34.9086C5.80137 34.9127 5.80408 34.9172 5.80637 34.9213C6.20051 35.2971 6.62083 35.6388 7.06587 35.9404C7.10674 35.9637 7.14738 35.9868 7.18826 36.0095C7.38739 36.1202 7.58639 36.2202 7.72465 36.265C7.87537 36.3152 8.21993 36.4928 8.59603 36.6453C8.78979 36.7246 8.9903 36.7972 9.17361 36.8537C9.22281 36.8689 9.27156 36.8832 9.31798 36.896C9.44498 36.9311 9.55604 36.9923 9.67158 37.0534C9.77994 37.1106 9.89302 37.1684 10.0261 37.2031C10.0923 37.2203 10.1664 37.233 10.2452 37.2457C10.3147 37.2569 10.3887 37.2676 10.4651 37.2824C10.5364 37.2964 10.6886 37.3479 10.8854 37.4087C11.0081 37.4465 11.1477 37.4885 11.2959 37.5278C11.6948 37.5978 12.0985 37.6549 12.5032 37.7032C12.5899 37.6977 12.6667 37.6848 12.7286 37.6629C12.7727 37.6472 12.8113 37.6264 12.8508 37.6051C12.9048 37.5759 12.961 37.5459 13.0347 37.5253C13.0922 37.5093 13.1581 37.5082 13.2002 37.5229C13.2196 37.5298 13.2342 37.5402 13.2472 37.5493C13.2621 37.5598 13.2763 37.5689 13.2938 37.5708C13.3063 37.5719 13.3203 37.5678 13.3371 37.5623C13.3645 37.5534 13.4008 37.5418 13.4521 37.5469C13.6431 37.566 13.8612 37.5926 14.0743 37.6162C14.312 37.6426 14.5446 37.6654 14.7314 37.673C14.9401 37.6817 15.237 37.7208 15.535 37.7557C15.7429 37.7801 15.9518 37.8025 16.1311 37.8129C16.3062 37.8231 16.489 37.8133 16.6667 37.8018C16.7647 37.7953 16.8662 37.788 16.9581 37.7843C17.0664 37.7802 17.1654 37.7802 17.2594 37.7898C17.2949 37.7936 17.3386 37.8182 17.3939 37.8485C17.4335 37.87 17.4791 37.8951 17.5301 37.9174C17.7526 37.913 17.9746 37.9077 18.1953 37.9004C18.203 37.8967 18.2115 37.8925 18.2194 37.8886L18.3655 37.8199C18.5243 37.7512 18.7242 37.6912 18.9828 37.7204C19.0721 37.7301 19.1275 37.7561 19.1803 37.779C19.2313 37.8015 19.2759 37.8214 19.3405 37.8203C19.4124 37.819 19.4964 37.7946 19.5852 37.7666C19.7106 37.7272 19.8491 37.6812 19.9934 37.6867C20.0032 37.6871 20.0148 37.6874 20.0257 37.6877C20.1308 37.6912 20.2853 37.6946 20.4437 37.7212C20.7463 37.6744 21.041 37.6151 21.3195 37.5353C21.4651 37.4928 21.6097 37.4498 21.7524 37.4063C22.4036 37.2121 23.1724 36.935 23.3221 36.6963C23.3613 36.6352 23.4001 36.5731 23.4373 36.5107C23.6221 36.202 23.824 35.91 24.0305 35.6998C24.2366 35.4895 24.4373 35.3852 24.5893 35.4426C24.6006 35.4468 24.6111 35.4526 24.6218 35.4584C24.7553 35.4589 24.8933 35.5118 25.027 35.6044C25.1922 35.7217 25.3405 35.9011 25.4471 36.1183C25.6621 36.5558 25.9028 36.9938 26.1453 37.4306C26.4416 37.963 26.7441 38.4967 27.0383 39.0325C27.191 39.3103 27.3455 39.5904 27.4984 39.8631C27.5511 39.9571 27.6022 40.0469 27.6564 40.1393C27.6778 40.1757 27.6995 40.2118 27.7209 40.2475C27.9375 40.519 28.1623 40.7783 28.3151 40.9627C28.441 41.1152 28.512 41.2411 28.574 41.3476C28.6181 41.4226 28.6552 41.4849 28.7065 41.5429C28.7338 41.5738 28.7713 41.6132 28.8179 41.6618C29.0065 41.8604 29.3345 42.1786 29.619 42.4713C29.7444 42.6016 29.8866 42.7566 30.0254 42.888C30.0989 42.9578 30.172 43.0212 30.2318 43.0668C30.2774 43.1122 30.3832 43.1389 30.2502 43.1251C30.6177 43.1708 30.6738 43.3087 30.7207 43.3244C30.8506 43.4223 30.8788 43.4416 30.969 43.4985C31.0504 43.5488 31.15 43.6016 31.2501 43.645C31.4431 43.7288 31.644 43.7856 31.7599 43.7803C31.9022 43.774 32.0143 43.8052 32.1953 43.8483C32.3136 43.877 32.4669 43.9112 32.6816 43.9345C32.9247 43.9606 33.1004 43.991 33.2521 44.0161C33.4599 44.0507 33.6192 44.0748 33.8633 44.0378C34.1244 43.9966 34.4015 43.9647 34.626 43.9719C34.7254 43.9752 34.8363 43.9704 34.9575 43.9642C35.1228 43.9559 35.2763 43.9468 35.434 43.9537C35.4675 43.9553 35.5003 43.9579 35.5314 43.9617C35.6172 43.9726 35.6906 43.9919 35.7599 44.0084C35.7887 44.0154 35.8167 44.0218 35.8432 44.0274C35.9426 44.0205 36.0419 44.0126 36.1402 44.0038C36.1555 43.9975 36.172 43.9904 36.189 43.9832C36.2746 43.9465 36.3783 43.9013 36.5079 43.8698C36.713 43.8198 36.8953 43.8144 37.0866 43.8039C37.2353 43.7955 37.3903 43.7833 37.5597 43.7408C37.6751 43.7117 37.8028 43.6669 37.9259 43.6184C38.1092 43.5466 38.2813 43.4652 38.4077 43.4275C38.4549 43.4136 38.5022 43.4156 38.5487 43.4172L38.5497 43.4173C38.5527 43.4174 38.5565 43.4174 38.5595 43.4175C38.8171 43.2913 39.061 43.1411 39.2923 42.9691C39.3251 42.9449 39.3582 42.9204 39.3907 42.8965C39.4135 42.8753 39.4374 42.8535 39.4606 42.8323C39.5729 42.7289 39.6834 42.6277 39.7444 42.5473C39.8112 42.4595 40.0167 42.2984 40.2294 42.1295C40.3688 42.0188 40.5113 41.9037 40.6206 41.8035C40.6848 41.7449 40.7634 41.7153 40.8427 41.6851C40.9174 41.6563 40.9941 41.6263 41.0592 41.5719C41.0925 41.5441 41.1233 41.5107 41.1568 41.4737C41.1858 41.4416 41.2157 41.4074 41.2486 41.3748C41.2788 41.3448 41.3623 41.2935 41.4594 41.2284C41.5189 41.1886 41.5863 41.1411 41.6473 41.092C41.7461 40.9827 41.8224 40.8626 41.8277 40.8239C41.8488 40.77 41.8672 40.7188 41.8833 40.6673C41.8808 40.6225 41.8692 40.5808 41.849 40.5451C41.8344 40.5201 41.8145 40.4958 41.794 40.4724C41.7662 40.4399 41.7367 40.4074 41.7162 40.3685C41.7003 40.3377 41.6984 40.3063 41.7124 40.2873C41.7188 40.2791 41.7286 40.2728 41.7374 40.2677C41.7474 40.2619 41.7568 40.2563 41.7585 40.2477C41.7596 40.2414 41.7553 40.2334 41.7496 40.224C41.7404 40.209 41.7284 40.1882 41.7325 40.1629C41.7484 40.0665 41.7707 39.9501 41.7889 39.8313C41.8093 39.6989 41.825 39.5624 41.8274 39.4523C41.8303 39.3291 41.8618 39.1515 41.8895 38.969C41.9089 38.8435 41.9271 38.7122 41.9344 38.6026C41.9386 38.5365 41.9357 38.4732 41.93 38.4053C41.9261 38.357 41.9213 38.309 41.9161 38.2619C41.901 38.1251 41.8857 37.9921 41.9058 37.8799C41.91 37.8573 41.9354 37.8289 41.9665 37.7939C41.9886 37.7694 42.014 37.7399 42.0372 37.7071C42.037 37.5632 42.0379 37.4211 42.0396 37.2774C42.0362 37.2725 42.0323 37.2665 42.0288 37.2613C41.9491 37.1458 41.8401 36.984 41.9045 36.7581C41.9209 36.7006 41.9516 36.6638 41.979 36.6315C42.0058 36.6001 42.0298 36.5713 42.0348 36.5291C42.0404 36.4812 42.0239 36.4247 42.0058 36.3642C41.9805 36.2802 41.9527 36.1811 41.9789 36.0864C41.9806 36.08 41.9825 36.0726 41.9844 36.0654C42.003 35.9961 42.0306 35.8904 42.086 35.7896C42.1005 35.4842 42.1174 35.1789 42.1362 34.8739C42.1623 34.4518 42.1925 34.0291 42.2234 33.6075C41.911 33.5578 41.5872 33.4691 41.2941 33.234C40.9887 32.9514 41.0449 32.7333 41.1357 32.6075C41.2342 32.4733 41.4714 32.4745 41.6433 32.4149C41.7992 32.3555 42.105 32.311 42.4455 32.3242C42.477 32.3255 42.5073 32.3257 42.5396 32.3269C43.195 32.3499 43.8601 32.3624 44.5195 32.3716C45.1552 32.3801 45.7913 32.3853 46.4224 32.3872C46.6279 32.3877 46.8322 32.3879 47.0344 32.3864C47.6114 32.3825 48.1755 32.3583 48.7347 32.2965C48.7923 32.2901 48.8499 32.2833 48.9074 32.2763C49.3703 32.1729 49.8263 32.0426 50.1483 31.953C50.3374 31.9007 50.4933 31.8696 50.6307 31.8458C50.6856 31.8364 50.7382 31.8272 50.7885 31.8189C50.907 31.7995 51.014 31.7811 51.1178 31.749C51.1729 31.732 51.2488 31.7071 51.3391 31.6768C51.7117 31.5529 52.343 31.3266 52.9363 31.1591C53.1999 31.0852 53.511 31.0099 53.8079 30.9352C54.2317 30.829 54.6273 30.7232 54.8136 30.6363C55.1149 30.4958 55.4715 30.3714 55.7946 30.2576C55.8228 30.2477 55.8513 30.2378 55.8779 30.2285C56.2079 30.1125 56.4972 30.0095 56.64 29.9184C56.7983 29.8155 57.0141 29.7328 57.0827 29.7021C57.0898 29.7002 57.0848 29.7117 57.0964 29.7027C57.1884 29.5884 57.2941 29.4532 57.407 29.2794C57.5852 29.0036 57.7066 28.8094 57.8051 28.6394C57.9414 28.4001 58.0354 28.2081 58.0845 27.9003C58.1382 27.5578 58.1739 27.1981 58.2197 26.9163C58.2411 26.7868 58.2533 26.6386 58.2612 26.4816C58.2717 26.2739 58.2745 26.0554 58.2878 25.8542C58.2897 25.8261 58.2914 25.7982 58.294 25.7713C58.307 25.6327 58.332 25.5154 58.3542 25.4088C58.3625 25.3692 58.3702 25.3308 58.3771 25.2935C58.3751 25.1544 58.3733 25.0152 58.3712 24.8756C58.3659 24.8531 58.3594 24.8291 58.3534 24.8046C58.323 24.6808 58.2865 24.5277 58.2677 24.3395C58.2379 24.0404 58.2556 23.7797 58.2736 23.504C58.2875 23.29 58.3019 23.0661 58.293 22.8147C58.2869 22.6425 58.2698 22.4451 58.2491 22.2574C58.2209 21.9885 58.1717 21.6972 58.1577 21.6303C58.1571 21.6279 58.1562 21.6255 58.1556 21.6231C58.1366 21.5493 58.1357 21.4802 58.1352 21.4121L58.1353 21.4111C58.1353 21.4065 58.1351 21.4019 58.135 21.3973C57.9713 20.9265 57.8166 20.4399 57.7037 19.9307C57.6904 19.8874 57.6772 19.8428 57.6647 19.799C57.6031 19.5841 57.5536 19.3682 57.5075 19.2268C57.4876 19.1662 57.467 19.0675 57.4507 18.9434C57.4274 18.7347 57.3986 18.7866 57.4179 18.8252C57.4216 18.8361 57.2508 18.7591 57.0986 18.7419C57.0069 18.7279 56.9197 18.6875 56.8229 18.6471C56.7332 18.6096 56.6329 18.5722 56.5224 18.5621C56.4648 18.5568 56.403 18.5573 56.3358 18.5589C56.2744 18.5601 56.2145 18.5625 56.1476 18.5615C56.0843 18.5604 55.9492 18.5373 55.7759 18.512C55.6762 18.4979 55.5736 18.4835 55.4543 18.4707C55.4397 18.469 55.4245 18.4677 55.4096 18.4662C55.0592 18.4646 54.703 18.4711 54.3462 18.4806C54.2729 18.4983 54.2081 18.5218 54.1565 18.5518C54.1194 18.5734 54.0872 18.5996 54.0559 18.6261C54.0129 18.6621 53.9676 18.6988 53.9056 18.7287C53.8574 18.752 53.7984 18.7615 53.761 18.7523C53.7435 18.748 53.7296 18.7397 53.7172 18.7322C53.7031 18.7236 53.6893 18.7158 53.674 18.716C53.6629 18.7164 53.6509 18.7227 53.6368 18.7302C53.614 18.7423 53.5842 18.7583 53.5388 18.7595C53.3699 18.7632 53.1746 18.7613 52.9868 18.7598C52.7746 18.7581 52.569 18.7576 52.4045 18.7662C52.221 18.7759 51.9576 18.7598 51.6938 18.7451C51.5098 18.7348 51.3244 18.7247 51.1661 18.7238C51.0109 18.7229 50.8501 18.742 50.6943 18.7605C50.5077 18.7826 50.3273 18.8038 50.1732 18.7901C50.1421 18.7872 50.1023 18.7641 50.053 18.7351C50.018 18.7144 49.977 18.6904 49.9312 18.669C49.736 18.6774 49.5399 18.6855 49.3449 18.6926C49.3383 18.6963 49.3307 18.7 49.3239 18.7038L49.1945 18.7716C49.0533 18.8394 48.874 18.8974 48.6406 18.8602C48.5622 18.8476 48.5103 18.8195 48.4647 18.7944C48.4197 18.7698 48.3789 18.7478 48.3221 18.7454C48.2578 18.743 48.1803 18.7636 48.0978 18.7859C47.9822 18.817 47.852 18.852 47.7191 18.833C47.7103 18.8317 47.7 18.8298 47.6902 18.8284C47.5956 18.8147 47.4494 18.795 47.3075 18.7471C46.8896 18.7548 46.4706 18.7599 46.0529 18.7647C45.789 18.7678 45.5269 18.7707 45.2668 18.7727C44.8591 18.7763 44.4571 18.7783 44.0528 18.7805C44.0439 18.7897 44.0356 18.7996 44.0267 18.8088C43.8512 18.9891 43.6376 19.1188 43.4306 19.1697C43.2235 19.2202 43.0399 19.1885 42.9162 19.0801C42.7927 18.9714 42.7378 18.7926 42.7629 18.5802C42.7675 18.5414 42.7774 18.5027 42.7871 18.4632C42.6934 18.3824 42.641 18.2925 42.6505 18.1965C42.6313 18.0367 42.7585 17.8747 42.9897 17.7402C43.0843 17.686 43.193 17.6396 43.311 17.5995C43.4389 17.4323 43.5626 17.2676 43.6702 17.1083C43.7372 17.0083 43.7987 16.9094 43.8498 16.8145C43.9118 16.6991 43.9507 16.6028 43.9883 16.4871C44.0465 16.0894 44.1045 15.6954 44.1618 15.3031C44.222 14.8911 44.2772 14.4808 44.3214 14.0722C44.3259 14.0303 44.3306 13.9878 44.3349 13.9459C44.3236 13.5992 44.3027 13.2587 44.2935 13.0229C44.2862 12.8286 44.3052 12.6875 44.3207 12.5678C44.3312 12.4844 44.3397 12.4119 44.334 12.3382C44.331 12.2987 44.3255 12.2457 44.3178 12.1817C44.2873 11.9203 44.2151 11.4906 44.1436 11.1451C44.1375 11.1143 44.1309 11.0825 44.1246 11.0513C44.0836 10.882 44.0476 10.6953 44.015 10.5164C43.9564 10.196 43.909 9.89963 43.8507 9.76132C43.7484 9.51858 43.6785 9.22746 43.6153 8.97591C43.5553 8.73599 43.4987 8.53157 43.4321 8.43105C43.3527 8.31169 43.3229 8.19619 43.2726 8.03863C43.2578 7.99269 43.24 7.94144 43.219 7.88942C43.1613 7.75723 43.1413 7.6893 43.0897 7.57941C42.9923 7.36971 42.9266 7.2181 42.8682 7.09085C42.7847 6.91216 42.7133 6.77751 42.5454 6.63319C42.359 6.47365 42.1655 6.3179 42.0272 6.18111C41.9644 6.11855 41.8833 6.0549 41.7983 5.99369C41.6852 5.91206 41.5631 5.83355 41.4549 5.7529C41.3666 5.68685 41.2998 5.61581 41.2382 5.55419C41.2189 5.535 41.199 5.51653 41.1809 5.49994C41.1 5.46275 41.0156 5.42779 40.9318 5.39664C40.9164 5.39619 40.8998 5.39564 40.8828 5.39555C40.797 5.39524 40.693 5.39799 40.5735 5.38228C40.3818 5.35706 40.2256 5.30502 40.0515 5.25834C40.0399 5.25525 40.028 5.25211 40.0162 5.2491C39.8795 5.21536 39.7372 5.18319 39.5746 5.16748ZM33.1705 23.2467C33.5683 23.2986 33.9575 23.4938 34.3365 23.8323C34.7153 24.1707 35.0683 24.7 35.3955 25.42C35.7066 26.1562 35.9758 27.0995 36.2031 28.2491C36.4303 29.3987 36.5916 30.8107 36.686 32.4847C36.6851 32.5643 36.6361 32.6431 36.5399 32.7217C36.4276 32.8002 36.2996 32.8634 36.1558 32.9098C35.996 32.9559 35.8435 32.9861 35.7 33.0005C35.5567 33.0149 35.4534 32.9896 35.3904 32.9252C35.315 30.9487 35.1481 29.3694 34.8893 28.1876C34.6144 27.0217 34.304 26.1662 33.959 25.6209C33.5981 25.0755 33.2108 24.7924 32.7967 24.7722C32.3826 24.768 31.9747 24.9392 31.5729 25.2855C31.1709 25.6478 30.7991 26.1386 30.4581 26.7566C30.1013 27.3743 29.8158 28.0404 29.6014 28.7551C29.3711 29.4697 29.2284 30.1853 29.1733 30.9016C29.1182 31.618 29.1748 32.2562 29.3443 32.8155L27.9088 32.9683C27.8953 32.7292 27.8594 32.3306 27.8014 31.7726C27.7273 31.2301 27.6538 30.6077 27.5813 29.9058C27.4928 29.2198 27.3971 28.5013 27.2932 27.7513C27.1894 27.0015 27.1006 26.2997 27.0277 25.6458C26.9545 25.0077 26.8885 24.457 26.8295 23.9943C26.7703 23.5478 26.741 23.2688 26.7421 23.1571L27.77 23.1669L28.8512 27.3134C29.0799 26.7582 29.356 26.2272 29.6798 25.7207C30.0037 25.2141 30.3593 24.7716 30.7456 24.3931C31.1159 24.0145 31.5093 23.7155 31.9258 23.4967C32.3419 23.294 32.7568 23.2108 33.1705 23.2467ZM27.9499 17.2386C28.7689 17.3391 29.3516 18.0841 29.2514 18.9032C29.1511 19.7224 28.4058 20.3048 27.5867 20.2047C26.7675 20.1044 26.184 19.3591 26.2843 18.5399C26.3847 17.7207 27.1307 17.1382 27.9499 17.2386ZM35.8692 17.7754C36.6883 17.8757 37.2717 18.6211 37.1716 19.4402C37.0713 20.2595 36.3251 20.8428 35.5058 20.7425C34.6868 20.642 34.1042 19.896 34.2045 19.0769C34.3049 18.2579 35.0502 17.6753 35.8692 17.7754Z" fill="white"/>
<path d="M54.6761 42.338C54.1888 42.061 53.3398 41.3848 52.8756 41.0213C52.8669 41.0145 52.8581 41.0076 52.8493 41.0008C52.7383 40.9137 52.6356 40.8367 52.5089 40.7422C52.2061 40.5165 51.8091 40.2197 50.9837 39.5633C50.7292 39.382 50.488 39.2099 50.2352 39.029C49.5054 38.5065 48.7756 37.9833 48.0386 37.4544C46.0814 36.0498 44.1304 34.6419 42.1648 33.2286C42.1304 33.2055 42.0953 33.182 42.0599 33.1583C41.3718 32.6972 40.5109 32.1228 39.9924 31.7366C39.3306 31.2437 38.8878 30.9039 38.5217 30.6217C36.3756 29.0962 34.2167 27.5847 32.0332 26.1114C31.3492 25.6498 30.6617 25.1914 29.9726 24.7383C29.337 24.3203 28.6994 23.9054 28.0614 23.4944C27.6818 23.2666 27.3168 23.0527 26.9809 22.8564C26.5065 22.5791 26.084 22.3328 25.7427 22.121C24.9143 21.6066 24.0082 20.9899 23.3271 20.5292C23.2163 20.4542 23.1119 20.3836 23.0154 20.3186C22.4613 19.9775 21.9127 19.6423 21.3517 19.3013C21.3185 19.2727 21.2851 19.2436 21.2512 19.2141C20.8316 18.8477 20.2551 18.4852 19.34 17.9168C18.9495 17.6744 18.4803 17.3841 17.9448 17.0474C17.5936 16.8268 17.4342 16.6895 17.3035 16.5771C17.2837 16.56 17.2645 16.5436 17.2455 16.5275C17.227 16.512 17.2086 16.4969 17.19 16.4821C17.0579 16.3767 16.8963 16.3051 16.7076 16.2222C16.4657 16.1164 16.1656 15.984 15.8248 15.7351C14.7316 14.939 14.1834 14.7163 13.7612 14.5418C13.6377 14.491 13.5267 14.4456 13.4177 14.393C13.0613 14.2208 12.5936 13.9188 12.2365 13.6706C11.9612 13.4777 11.3591 13.1765 10.8874 12.9636C10.711 12.884 10.4834 12.7598 10.2106 12.6127C9.93526 12.4642 9.60355 12.287 9.25065 12.1205C8.34984 11.6957 7.86708 11.4784 7.48074 11.3041C7.36955 11.2541 7.26707 11.2083 7.16544 11.1633C6.83854 11.0184 6.43648 10.8369 6.03006 10.659C5.54224 10.4449 5.0402 10.2329 4.65915 10.0853C3.69074 9.63331 2.71551 9.20406 1.72691 8.79134C1.21945 8.57912 0.750495 8.32215 0.427652 8.07012C0.104897 7.81809 -0.0456923 7.59208 0.012135 7.43784C0.0700841 7.28374 0.33208 7.21213 0.742279 7.23664C1.15241 7.26131 1.67846 7.3818 2.20275 7.57244C3.25926 7.95641 4.31083 8.36228 5.35116 8.80318C6.61679 9.3388 7.86396 9.92372 9.08113 10.55C9.93444 10.9889 10.7783 11.4452 11.6131 11.9134C11.699 11.9616 11.7896 12.0126 11.8722 12.0593C12.5963 12.4143 13.3076 12.777 13.8069 13.0494C14.2146 13.2718 14.5007 13.4637 14.7419 13.6262C14.906 13.737 15.053 13.8365 15.2099 13.9269C15.294 13.9753 15.4116 14.0419 15.5464 14.1182C16.1019 14.4329 17.0303 14.9655 17.8622 15.5173C17.8752 15.5259 17.8882 15.5345 17.9011 15.5432C18.2637 15.7851 18.698 16.0925 19.093 16.3757C19.6747 16.7908 20.1983 17.1697 20.4934 17.3384C20.9935 17.6231 21.5546 18 22.0413 18.3288C22.5141 18.648 22.9126 18.9189 23.1669 19.0483C23.4709 19.203 23.6977 19.3635 24.0462 19.6099C24.2886 19.7813 24.5811 19.9885 24.9904 20.2597C25.466 20.5746 25.7854 20.8082 26.0623 21.0103C26.4529 21.2955 26.7396 21.5058 27.2129 21.7677C27.737 22.0576 28.274 22.3755 28.6782 22.6554C28.8618 22.7826 29.0768 22.9213 29.3008 23.0661C29.5982 23.2583 29.9078 23.4588 30.1829 23.6576C30.4093 23.8213 30.5851 23.9751 30.7396 24.1107C30.7878 24.153 30.8342 24.1936 30.8795 24.2323C31.0652 24.3541 31.2511 24.4759 31.4372 24.5976C31.4701 24.6131 31.5048 24.6292 31.5411 24.646C31.7228 24.7306 31.9458 24.8345 32.2074 24.9859C32.6212 25.2253 32.9607 25.4717 33.3183 25.7319C33.5966 25.9343 33.8862 26.1452 34.231 26.3682C34.4663 26.5203 34.7373 26.6852 35.008 26.8502C35.4099 27.0953 35.8034 27.3356 36.0651 27.5254C36.1631 27.5963 36.2382 27.6708 36.3123 27.7445C36.3126 27.7449 36.3129 27.7452 36.3132 27.7456C36.3183 27.7506 36.3234 27.7556 36.3284 27.7606C36.9867 28.1833 37.6472 28.6068 38.3078 29.0307C38.3672 29.0645 38.427 29.0987 38.4862 29.1326C38.7758 29.2984 39.0537 29.4574 39.2492 29.5488C39.4614 29.648 39.9421 29.9474 40.4596 30.2714C40.7968 30.4825 41.1396 30.697 41.4305 30.8705C41.5993 30.971 41.7407 31.0923 41.8854 31.2168C42.0196 31.3323 42.1602 31.4529 42.3289 31.562C42.4133 31.6166 42.5076 31.6706 42.6078 31.728C42.6961 31.7785 42.7892 31.8318 42.8842 31.8905C42.9714 31.9442 43.1591 32.0862 43.3978 32.2672C43.5452 32.3789 43.7117 32.5052 43.8863 32.6351C44.3779 32.9569 44.8554 33.2706 45.345 33.5947C45.4549 33.6485 45.5543 33.6885 45.6393 33.7105C45.7003 33.7263 45.7563 33.7336 45.8138 33.7411C45.8925 33.7517 45.9759 33.7641 46.0768 33.7978C46.1558 33.8242 46.2383 33.8701 46.2845 33.9138C46.306 33.9342 46.3196 33.954 46.332 33.9719C46.3462 33.9924 46.3589 34.0107 46.3798 34.0249C46.395 34.0352 46.4142 34.0409 46.4377 34.0481C46.4752 34.0595 46.5239 34.0744 46.5846 34.1158C46.8057 34.2667 47.0722 34.4579 47.3181 34.6351C47.5891 34.8304 47.87 35.0328 48.0881 35.1797C48.3288 35.3416 48.6759 35.613 49.0042 35.872C49.036 35.8971 49.0678 35.9221 49.0993 35.947C49.3054 36.1087 49.5038 36.2641 49.6774 36.3937C49.8718 36.5389 50.1033 36.6872 50.312 36.8201C50.5587 36.9768 50.8185 37.1441 51.003 37.3007C51.0409 37.3328 51.0762 37.3888 51.1199 37.4585C51.1525 37.509 51.1911 37.5678 51.2371 37.6295C51.497 37.8156 51.7452 37.9952 52.0045 38.1845C52.0155 38.1882 52.0268 38.1921 52.0381 38.196C52.0383 38.196 52.0385 38.1961 52.0387 38.1961C52.2902 38.2794 52.6496 38.4047 53.0097 38.7475C53.1043 38.8369 53.1507 38.9085 53.1923 38.973C53.2331 39.0362 53.2692 39.0925 53.339 39.1499C53.4183 39.2151 53.5331 39.2788 53.6517 39.3438C53.818 39.4347 54.0052 39.5378 54.1618 39.6865C54.1724 39.6966 54.1837 39.7075 54.1955 39.7187C54.3047 39.8229 54.4762 39.9849 54.6229 40.1642C55.1537 40.5797 55.6807 41.0014 56.2007 41.4292C57.0671 42.1439 57.9323 42.8801 58.7561 43.6739C58.984 43.8942 59.1964 44.1378 59.3611 44.3639C59.4847 44.5323 59.5886 44.6951 59.6687 44.8476C59.7638 45.0282 59.8215 45.1861 59.84 45.3162C59.8489 45.3812 59.8482 45.4387 59.8357 45.4896C59.8277 45.5105 59.8248 45.5537 59.7931 45.5525C59.7811 45.5354 59.7834 45.5135 59.7821 45.4937C59.7729 45.4772 59.8186 45.441 59.7377 45.4454C59.709 45.4479 59.6612 45.5107 59.6616 45.5437C59.657 45.5741 59.658 45.5856 59.6563 45.5958C59.6527 45.6124 59.646 45.6187 59.6376 45.6242C59.6034 45.6431 59.5523 45.6416 59.4942 45.6335C59.3769 45.6158 59.2254 45.5604 59.0486 45.4699C58.8991 45.3936 58.7369 45.2948 58.5674 45.177C58.3408 45.0202 58.1056 44.8365 57.8766 44.6427C57.2212 44.0875 56.5269 43.5578 55.8238 43.0345C55.786 43.0089 55.7477 42.9828 55.7092 42.9563C55.4272 42.763 55.1504 42.6057 54.8677 42.4457C54.8048 42.4106 54.7409 42.3748 54.6761 42.338Z" fill="white"/>
</svg>
