<svg width="35" height="26" viewBox="0 0 35 26" fill="none" xmlns="http://www.w3.org/2000/svg">
<path d="M19.0549 0.0238876C19.741 -0.0230821 20.396 0.00680994 21.0471 0.0483017C21.1492 0.0544909 21.2493 0.0644558 21.3499 0.0785751C21.6112 0.11515 21.8748 0.181699 22.1243 0.276817C22.3555 0.36475 22.5766 0.477897 22.7825 0.612755C22.9098 0.679183 23.0292 0.748077 23.137 0.817833C23.2879 0.91545 23.4156 1.01447 23.5081 1.10787C23.6791 1.27406 23.8611 1.56902 23.9133 1.69088C23.949 1.74967 23.9782 1.80425 24.0032 1.85397C24.023 1.89349 24.0406 1.93012 24.0559 1.96334C24.1649 2.13732 24.2544 2.3013 24.342 2.46139C24.3414 2.47512 24.3402 2.48944 24.3391 2.50338C24.3264 2.67897 24.4032 2.84794 24.5247 3.10592C24.5777 3.21825 24.64 3.34693 24.7083 3.49947C24.734 3.55699 24.7422 3.60305 24.7444 3.64205C24.749 3.67549 24.7497 3.70481 24.7493 3.73092C24.7489 3.74929 24.7478 3.76744 24.7483 3.78365C24.7504 3.84037 24.7932 3.88434 24.8411 3.936C24.9033 4.00348 24.9759 4.08846 24.9739 4.22506C24.9594 4.65154 25.0511 4.79857 25.1331 4.9233C25.1561 4.95915 25.1774 4.99131 25.1907 5.02584C25.2338 5.13788 25.2189 5.30572 25.1868 5.43014C25.1621 5.52918 25.2043 5.71923 25.2483 5.86373C25.2651 5.91839 25.2664 5.99338 25.2678 6.08053C25.2693 6.17132 25.2703 6.27547 25.2864 6.38717C25.3266 6.6685 25.3413 6.81925 25.3538 6.93893C25.3572 6.97342 25.3604 7.00469 25.3635 7.03658C25.3712 7.113 25.374 7.20352 25.3782 7.29733C25.44 7.26516 25.5003 7.23047 25.5608 7.19479C25.5863 7.1796 25.6112 7.16383 25.637 7.14889C25.8328 7.03514 26.2439 6.99412 26.47 6.97213C26.474 6.9717 26.4786 6.97063 26.4827 6.97018C26.5364 6.9649 26.5866 6.95784 26.6458 6.94869C26.7862 6.92706 26.9768 6.89687 27.3801 6.87838C27.4947 6.85711 27.6106 6.83702 27.7258 6.81783C28.849 6.6344 29.9693 6.50122 31.1584 6.46529C31.2967 6.46201 31.4299 6.46188 31.5715 6.46432C31.5884 6.46329 31.6067 6.46237 31.6252 6.46139C31.9764 6.44846 32.421 6.4206 32.8743 6.6235C33.0714 6.71095 33.332 6.91028 33.4514 7.16158C33.5699 7.40772 33.5625 7.57115 33.5657 7.63326C33.5644 7.67851 33.5643 7.72157 33.5647 7.76217C33.6168 8.15063 33.7566 8.56302 33.9299 8.99264C34.0874 9.45048 34.0605 9.64179 34.0999 9.92525C34.1263 10.1911 34.1495 10.4493 34.176 10.7075C34.2076 11.0166 34.2433 11.3244 34.2854 11.6303C34.2901 11.6644 34.2951 11.6992 34.3 11.7338C34.3382 12.004 34.3632 12.2779 34.3674 12.559C34.3844 12.7444 34.3936 12.9267 34.3928 13.0971C34.392 13.3367 34.3703 13.5562 34.3303 13.7319C34.2504 14.0978 34.059 14.4731 33.8977 14.7329C33.8422 14.8377 33.7351 14.9552 33.6663 15.0083C33.5845 15.0742 33.5277 15.1065 33.4778 15.1362C33.2301 15.305 33.0322 15.4204 32.8206 15.5532C32.8105 15.5546 32.7997 15.5567 32.7893 15.5581C32.7821 15.5589 32.7742 15.5601 32.7668 15.561C32.5393 15.5895 32.3117 15.7161 31.9495 15.9096C31.792 15.9936 31.6078 16.0907 31.387 16.1958C31.2448 16.2633 31.1565 16.2685 31.0852 16.2729C31.0643 16.2742 31.0439 16.2761 31.0247 16.2788C30.959 16.288 30.909 16.3375 30.8499 16.396C30.7729 16.4721 30.6791 16.5636 30.5149 16.5981C30.0374 16.6975 29.8452 16.8394 29.7073 16.9585C29.6943 16.9695 29.6813 16.9802 29.6692 16.9907C29.6278 17.0267 29.589 17.0597 29.5471 17.0854C29.4104 17.1696 29.1865 17.2177 29.011 17.2309C28.8725 17.2424 28.6209 17.3488 28.428 17.436C28.3553 17.4692 28.2513 17.4936 28.1292 17.519C28.0026 17.5453 27.8559 17.5732 27.7024 17.6147C27.3395 17.7117 27.1382 17.7522 26.9807 17.7866C26.9698 17.7889 26.9581 17.7912 26.9475 17.7934C26.9014 17.8032 26.8586 17.8127 26.8157 17.8217C26.6796 17.8504 26.5094 17.8783 26.3381 17.9057C26.133 17.9387 25.9248 17.9708 25.7668 18.0024C25.719 18.0037 25.6711 18.0033 25.6233 18.0044C25.6351 18.0542 25.6477 18.1039 25.6594 18.1538C25.6642 18.166 25.6686 18.1792 25.6731 18.1909C25.707 18.2814 25.7636 18.3634 25.8196 18.4458C25.8323 18.4641 25.8452 18.4826 25.8577 18.5014C25.9533 18.6451 25.9583 18.945 25.9612 19.1098C25.9613 19.1126 25.962 19.1158 25.9622 19.1186C25.9629 19.158 25.9659 19.1953 25.97 19.2378C25.98 19.3409 25.993 19.4788 25.9797 19.7729C25.992 19.8568 26.0035 19.9397 26.0139 20.0239C26.0312 20.1632 26.0472 20.303 26.0618 20.4438C26.1038 21.0308 26.2051 21.6357 25.9241 22.4633C25.7219 22.9549 25.5081 23.0901 25.3215 23.2749C25.3124 23.2849 25.3024 23.2953 25.2932 23.3051C25.1109 23.5014 24.8923 23.7064 24.7346 23.8061C24.5345 23.9321 24.3945 24.0058 24.2795 24.0659C24.1796 24.1371 24.08 24.2089 23.9817 24.2797C23.4087 24.718 22.7016 24.9514 22.0803 25.0786C21.8427 25.1296 21.61 25.1725 21.3801 25.2143C21.3611 25.2178 21.3417 25.2216 21.3225 25.2251C21.1269 25.2603 20.9364 25.2938 20.7454 25.3266C20.6207 25.3622 20.5093 25.3984 20.3987 25.4311C20.2493 25.4764 20.1118 25.5147 19.9924 25.5337C19.7119 25.5792 19.3858 25.568 19.1321 25.5434C19.0904 25.5396 19.0523 25.5356 19.0178 25.5317C18.8138 25.5353 18.6041 25.5309 18.3674 25.4917C18.353 25.4819 18.3384 25.4718 18.3245 25.4614C18.2432 25.4024 18.1513 25.3542 18.0334 25.2905C17.9743 25.2584 17.9078 25.2205 17.843 25.1772C17.8398 25.175 17.8366 25.1726 17.8333 25.1704C17.7998 25.164 17.7748 25.1568 17.7463 25.1508C17.5366 25.0913 17.3873 25.0143 17.2112 24.9077C17.1004 24.8386 17.063 24.7723 17.0354 24.7212C17.0271 24.706 17.0188 24.6915 17.01 24.6782C16.9811 24.6335 16.9237 24.6217 16.8586 24.6079C16.7725 24.5887 16.6695 24.5641 16.594 24.4546C16.3611 24.1072 16.19 24.0442 16.05 23.9946C16.0093 23.9794 15.9734 23.9664 15.9417 23.9467C15.8375 23.8823 15.7459 23.7391 15.6936 23.6176C15.6518 23.522 15.5012 23.3911 15.3762 23.2963C15.3377 23.2675 15.2986 23.222 15.2551 23.1655C15.2465 23.1542 15.2372 23.1418 15.2278 23.1294C15.1733 23.0574 15.1104 22.973 15.0315 22.894C14.8313 22.6932 14.7278 22.5827 14.6448 22.4946C14.6213 22.4696 14.5994 22.4467 14.5774 22.4233C14.5079 22.3494 14.4265 22.2524 14.345 22.1547C14.2472 22.0377 14.1482 21.9174 14.0667 21.8296C14.0653 21.8273 14.064 21.825 14.0627 21.8227C13.7873 22.1716 13.4966 22.2843 13.2668 22.4506C13.2485 22.4642 13.2298 22.4776 13.2112 22.4907C13.0752 22.587 12.9624 22.6929 12.8499 22.7973C12.8262 22.8193 12.8028 22.8409 12.7786 22.8628C12.776 22.8649 12.7734 22.8675 12.7708 22.8696C12.516 23.0827 11.9661 23.2274 11.6829 23.2778C11.6775 23.2789 11.6714 23.2807 11.6663 23.2817C11.5988 23.2947 11.5347 23.3087 11.4612 23.3247C11.2854 23.3621 11.046 23.4138 10.5579 23.4448C10.4185 23.4695 10.2789 23.4914 10.1399 23.5112C10.0179 23.5286 9.89843 23.5444 9.77661 23.559C8.39017 23.7185 6.99177 23.7268 5.56958 23.4799C5.55006 23.4778 5.53026 23.4754 5.51001 23.4731C5.20479 23.4388 4.83723 23.3775 4.54614 23.2905C4.4626 23.2658 4.3872 23.2396 4.32056 23.2133C3.94054 23.0618 3.69955 22.9234 3.50708 22.8051C2.67283 22.3801 1.95624 21.7611 1.36548 21.1294C1.13679 20.8888 0.909465 20.6388 0.699463 20.3403C0.513883 20.0819 0.352341 19.7495 0.260986 19.4575C0.230879 19.3666 0.203341 19.2752 0.178955 19.1831C0.082015 18.8177 0.0322357 18.4402 0.0246582 18.0678C0.00595577 17.8512 -0.00140547 17.6448 0.000244141 17.4546C0.00265803 17.187 0.0223796 16.9507 0.0549316 16.7612C0.120128 16.379 0.25707 15.9801 0.381104 15.6626C0.410086 15.586 0.440076 15.5175 0.468994 15.4546C0.497713 15.3921 0.524904 15.3363 0.551025 15.2846C0.671507 14.9899 0.805363 14.7196 0.943604 14.4555C0.959009 14.4416 0.975344 14.4276 0.991455 14.4135C1.19256 14.2385 1.34986 13.9765 1.60669 13.5747C1.61314 13.5646 1.61966 13.5537 1.62622 13.5434C1.73653 13.3715 1.86863 13.1757 2.03442 12.9575C2.14821 12.8082 2.23422 12.7527 2.30396 12.7075C2.32437 12.6943 2.34348 12.6816 2.36157 12.6684C2.42421 12.6225 2.45496 12.5465 2.49341 12.4565C2.54274 12.3406 2.60497 12.2009 2.76099 12.0805C3.259 11.7018 3.39617 11.4662 3.5022 11.2768C3.53278 11.2228 3.56207 11.173 3.59692 11.1284C3.70977 10.9833 3.92382 10.8336 4.09692 10.7407C4.11182 10.7326 4.12762 10.7223 4.1438 10.7114C4.28742 10.611 4.50477 10.411 4.69751 10.2612C4.7778 10.1974 4.901 10.1314 5.04614 10.0678C5.1963 10.0017 5.36845 9.93885 5.53931 9.86568C5.64174 9.82176 5.7315 9.78456 5.81079 9.7524C6.07039 9.64801 6.23818 9.58841 6.37915 9.53854C6.43231 9.51988 6.48077 9.5028 6.53052 9.4858C6.686 9.43244 6.88189 9.37486 7.0813 9.32076C7.31943 9.25586 7.56538 9.19627 7.75122 9.14596C7.76749 9.144 7.78383 9.14201 7.80005 9.1401C7.78156 9.08292 7.76403 9.02907 7.7522 8.9858C7.75157 8.98361 7.74995 8.98117 7.74927 8.97897C7.74103 8.94847 7.73077 8.91967 7.71802 8.88619C7.68917 8.81051 7.64966 8.70547 7.60181 8.48092C7.5991 8.47103 7.59568 8.46087 7.59302 8.45065C7.55308 8.36038 7.51905 8.26971 7.4895 8.17916C7.18521 7.19204 7.31691 6.31556 7.47485 5.51022C7.4756 5.50002 7.47603 5.48943 7.47681 5.47897C7.47919 5.44701 7.48173 5.41306 7.48462 5.37936C7.50231 5.11261 7.63222 4.77202 7.75024 4.62838C7.79569 4.5686 7.83695 4.52278 7.87134 4.48678C8.06779 4.24686 8.10674 4.27467 8.177 4.22506C8.2385 4.19272 8.28681 4.17216 8.33228 4.15377C8.93846 3.82931 9.47863 3.6087 10.0266 3.32565C10.032 3.32289 10.0378 3.3196 10.0432 3.31686C10.2183 3.2276 10.393 3.13668 10.5676 3.04537C10.7285 2.96124 10.8906 2.87743 11.053 2.79342C11.1415 2.7317 11.2248 2.66925 11.303 2.61275C11.4124 2.53357 11.514 2.46426 11.6018 2.41842C11.815 2.30678 12.0833 2.23296 12.2893 2.18697C12.323 2.17934 12.354 2.17307 12.384 2.16647C12.5412 2.10549 12.7032 2.04786 12.8821 2.00045C12.8954 2.00432 12.9096 2.00874 12.9231 2.01315C13.0583 2.0579 13.198 2.04369 13.4387 2.05123C13.5124 2.05454 13.5921 2.06306 13.677 2.08053C13.8483 2.11511 14.0444 2.1932 14.219 2.32565C14.3308 2.41147 14.3556 2.48512 14.3752 2.54147C14.3809 2.55814 14.3861 2.5738 14.3918 2.58834C14.4117 2.63819 14.4621 2.66004 14.5217 2.68893C14.5985 2.72568 14.6923 2.77783 14.7268 2.89791C14.7749 3.08182 14.8271 3.19752 14.8811 3.27682C14.9057 3.24377 14.9265 3.21135 14.9514 3.1733C15.0121 3.08163 15.0947 2.95506 15.3088 2.72897C15.3576 2.65464 15.4087 2.58027 15.4602 2.50826C15.7981 2.03548 16.1857 1.60373 16.5715 1.21139C16.8595 0.912655 17.1973 0.62979 17.592 0.410606C17.6038 0.402521 17.6159 0.394421 17.6282 0.386192C17.7047 0.334705 17.7903 0.280818 17.8752 0.233849C18.1601 0.0878373 18.3316 0.0578179 18.4797 0.0365829C18.7456 0.00847161 18.9149 0.0168688 19.0549 0.0238876ZM20.5159 1.08541C20.3937 1.1062 20.2758 1.1291 20.1917 1.12057C20.1604 1.11723 20.1327 1.09811 20.1047 1.07955C20.1029 1.07835 20.1006 1.07682 20.0989 1.07565C19.8973 1.10088 19.6969 1.13326 19.5022 1.1733C19.4856 1.18034 19.4686 1.18783 19.4524 1.19479C19.372 1.22907 19.2952 1.264 19.2493 1.30514C19.1998 1.34941 19.0633 1.39318 18.9338 1.44479C18.8481 1.4786 18.7639 1.51686 18.7102 1.55514C18.6784 1.57708 18.6416 1.56836 18.6106 1.55807C18.5912 1.55114 18.5724 1.54429 18.5696 1.53951C18.5577 1.54317 18.5458 1.54869 18.5354 1.55611C18.5183 1.56849 18.5022 1.58728 18.4866 1.6069C18.4726 1.62442 18.4572 1.64411 18.4407 1.66061C18.4245 1.67586 18.3785 1.69151 18.3206 1.71529C18.2845 1.73011 18.2431 1.74843 18.2014 1.77096C18.112 1.85812 18.0257 1.95401 17.9426 2.05514C17.9365 2.08728 17.9374 2.12069 17.9465 2.15475C17.9533 2.17917 17.9643 2.20547 17.9758 2.2319C17.9917 2.26759 18.0084 2.30432 18.0159 2.34029C18.0218 2.36827 18.0152 2.39037 17.9993 2.394C17.9919 2.39542 17.9822 2.39365 17.9739 2.39205C17.9641 2.39017 17.9549 2.38867 17.9514 2.39303C17.9508 2.39419 17.9503 2.39602 17.9504 2.39791C17.9504 2.40193 17.9514 2.40777 17.9524 2.41354C17.955 2.42882 17.9579 2.44911 17.9456 2.46432C17.8995 2.52096 17.8418 2.58032 17.7864 2.63815C17.7249 2.7023 17.6654 2.76509 17.6252 2.82076C17.5801 2.88318 17.4931 2.95267 17.4075 3.02291C17.3479 3.07168 17.2881 3.12151 17.2434 3.16842C17.1994 3.21472 17.169 3.27548 17.1409 3.33346C17.1068 3.40335 17.0756 3.47086 17.0227 3.50924C17.0117 3.51661 16.982 3.51455 16.9456 3.51217C16.9195 3.51046 16.8892 3.50893 16.8596 3.51022C16.8135 3.5746 16.7661 3.6396 16.72 3.70358C16.7212 3.70778 16.7226 3.7129 16.7239 3.71725C16.7526 3.81626 16.7942 3.94845 16.6731 4.01608C16.6423 4.03313 16.606 4.03336 16.5735 4.03365C16.5418 4.03395 16.513 4.03479 16.4963 4.05123C16.4778 4.07042 16.4743 4.10607 16.4719 4.144C16.4687 4.19721 16.4654 4.25623 16.4163 4.28756C16.413 4.2897 16.4091 4.29303 16.4055 4.29537C16.3699 4.31872 16.3174 4.35299 16.2415 4.37447C16.2034 4.42908 16.1649 4.48418 16.1272 4.53951C16.0666 4.62952 16.0056 4.71957 15.9446 4.80904C15.8463 4.95311 15.7476 5.09687 15.6497 5.24068C15.6538 5.25824 15.6584 5.27524 15.6624 5.29244C15.6824 5.37941 15.7003 5.48859 15.717 5.59811C15.7371 5.72912 15.7552 5.86238 15.7766 5.96334C15.7692 6.0956 15.7594 6.2275 15.7473 6.35885C15.7492 6.37494 15.7422 6.42288 15.7424 6.43893C15.7154 6.57916 15.6814 6.72733 15.6379 6.87447C15.5932 7.02674 15.4793 7.15743 15.3303 7.22018C15.1808 7.28375 15.0109 7.27644 14.8577 7.21725C14.7043 7.15767 14.5745 7.05376 14.4836 6.94088C14.3933 6.8272 14.3486 6.71375 14.3567 6.60885C14.3651 6.50668 14.3676 6.40251 14.3674 6.29147L14.3645 6.35885C14.3516 6.22853 14.3373 6.09837 14.3235 5.9692C14.3002 5.75184 14.2777 5.53545 14.2561 5.32272C14.2413 5.26345 14.2363 5.20345 14.2385 5.144C14.2362 5.12016 14.233 5.09646 14.2307 5.07272C14.2116 4.87431 14.1903 4.67722 14.1624 4.50338C14.0391 4.32462 13.973 4.22093 13.9211 4.13229C13.8709 4.04467 13.8612 3.9744 13.8528 3.91451C13.8471 3.87359 13.8416 3.83734 13.8245 3.80807C13.8152 3.79232 13.8019 3.77135 13.7854 3.74752C13.7178 3.64745 13.6007 3.50557 13.5491 3.40377C13.5258 3.35656 13.5112 3.30195 13.4944 3.25631C13.4733 3.19256 13.4303 3.1421 13.3987 3.15182H13.3958C13.3293 3.17251 13.2149 3.1651 13.1018 3.17037C12.9944 3.17483 12.8912 3.18876 12.844 3.23092C12.7869 3.28152 12.7276 3.28613 12.636 3.29635C12.5732 3.30326 12.4936 3.31359 12.3918 3.34518C12.2741 3.38193 12.183 3.39449 12.1057 3.40572C11.9968 3.42187 11.9141 3.4357 11.8196 3.51998C11.7152 3.61344 11.6006 3.69731 11.4954 3.73385C11.4475 3.75039 11.396 3.77791 11.343 3.80611C11.2729 3.84342 11.199 3.88301 11.1243 3.90475C11.0623 3.92274 11.0009 3.91873 10.9465 3.91549C10.9297 3.91448 10.913 3.91377 10.8977 3.91354C10.8534 3.93748 10.8088 3.96204 10.7649 3.98678C10.7601 3.99518 10.7544 4.00469 10.7493 4.01412C10.7235 4.06151 10.6921 4.11967 10.6409 4.16842C10.6083 4.19939 10.574 4.22341 10.5383 4.24264C10.4838 4.27204 10.4264 4.29101 10.3674 4.311C10.2907 4.337 10.2101 4.36433 10.1301 4.41549C10.0756 4.45044 10.0185 4.49819 9.96118 4.54537C9.8764 4.61528 9.79335 4.68365 9.7229 4.71041C9.6973 4.7199 9.66501 4.7151 9.63501 4.70943L9.62915 4.70846C9.48125 4.81136 9.33549 4.91615 9.19849 5.02193C9.18841 5.03423 9.17801 5.04602 9.16821 5.05807C9.12032 5.11693 9.07784 5.17362 9.06372 5.22408C9.05668 5.24901 9.03674 5.27969 9.0188 5.30807C9.01059 5.32121 8.95468 5.41503 9.07642 5.27584C9.07212 5.28613 9.06738 5.2966 9.06372 5.30611C9.03711 5.37453 9.03249 5.41803 9.04126 5.44967C9.04617 5.46775 9.0229 5.47251 8.99829 5.4819C8.97516 5.49051 8.95014 5.50374 8.95142 5.52584C8.95205 5.53546 8.95782 5.5468 8.96411 5.55904C8.96481 5.5622 8.96533 5.56561 8.96606 5.56881C8.97139 5.59192 8.97734 5.61707 8.97974 5.64205C8.98177 5.66549 8.96535 5.71479 8.94458 5.77779C8.93168 5.81685 8.91698 5.8618 8.90454 5.90865C8.90617 6.03547 8.9094 6.16114 8.91528 6.28463C8.93222 6.31097 8.95515 6.33456 8.98462 6.35299C9.00576 6.36616 9.03187 6.3776 9.05786 6.38912C9.09325 6.40481 9.13038 6.42079 9.15942 6.44186C9.1819 6.4583 9.19049 6.47729 9.18091 6.48971C9.17637 6.49543 9.16803 6.5004 9.1604 6.50436C9.15157 6.50891 9.14364 6.51292 9.1438 6.51803C9.14426 6.52157 9.15032 6.52519 9.15747 6.52975C9.16926 6.53728 9.18506 6.54755 9.18579 6.56197C9.18757 6.61682 9.18313 6.67889 9.17993 6.73873C9.17634 6.80488 9.17395 6.86887 9.18188 6.91842C9.19073 6.97397 9.17455 7.05472 9.16138 7.13424C9.15207 7.18967 9.14445 7.24594 9.14575 7.29147C9.14718 7.33603 9.16832 7.37809 9.1897 7.41647C9.21545 7.46293 9.24088 7.50419 9.23267 7.54733C9.23094 7.55607 9.2099 7.57296 9.18384 7.5942C9.16549 7.60911 9.14459 7.62663 9.12622 7.64498C9.14236 7.69445 9.15869 7.7427 9.17603 7.78854C9.17965 7.7888 9.18402 7.78929 9.18774 7.78951C9.19235 7.78974 9.19766 7.78926 9.20239 7.78951C9.29814 7.81532 9.41602 7.85241 9.40356 7.97994C9.39995 8.01346 9.38002 8.04327 9.36157 8.06979C9.34339 8.09579 9.32668 8.11907 9.33032 8.14108C9.33474 8.16605 9.36079 8.18619 9.38989 8.20943C9.43078 8.24184 9.47545 8.2766 9.47095 8.33443C9.47062 8.33825 9.47031 8.34291 9.46997 8.34713C9.46659 8.38797 9.46194 8.44925 9.43091 8.51998C9.47744 8.67383 9.52088 8.82974 9.56079 8.98678C9.56843 9.01684 9.57389 9.04745 9.5813 9.0776C9.71735 9.10464 9.8178 9.15093 9.90747 9.20943C10.0764 9.32384 10.1745 9.47342 10.1926 9.63717C10.2107 9.80079 10.1208 9.97039 9.94849 10.1001C9.85182 10.1747 9.72752 10.2326 9.62524 10.2758C9.58977 10.2912 9.55504 10.3052 9.51294 10.3188C9.43134 10.3809 9.33554 10.426 9.23169 10.4458C9.08506 10.4744 8.93618 10.462 8.80688 10.4243C8.524 10.4672 8.22732 10.5253 7.94263 10.5864C7.38608 10.7067 6.83465 10.8515 6.29126 11.0102C6.26 11.0194 6.22799 11.0282 6.19653 11.0376C5.83697 11.1445 5.53909 11.2417 5.29321 11.3842C5.26507 11.4003 5.23626 11.4165 5.20825 11.434C5.12294 11.5106 5.03903 11.5957 4.95825 11.6821C4.83001 11.8154 4.71374 11.9381 4.61938 12.0337C4.48606 12.1686 4.37135 12.2484 4.27368 12.3178C4.20678 12.3654 4.14668 12.4091 4.09692 12.4624C4.07005 12.4911 4.03503 12.5315 3.99243 12.5805C3.81785 12.7797 3.53691 13.1266 3.2561 13.4272C3.13077 13.5603 2.97727 13.7112 2.83423 13.8598C2.7367 13.9611 2.64472 14.0603 2.56763 14.1518C2.48069 14.2556 2.41196 14.3458 2.37817 14.4126C2.2653 14.6357 2.10036 14.8671 1.96216 15.0727C1.82997 15.2686 1.72274 15.442 1.69751 15.5551C1.66784 15.6895 1.60707 15.786 1.53247 15.9233C1.51577 15.9542 1.49804 15.9882 1.48169 16.0229C1.44233 16.1126 1.3992 16.2185 1.35571 16.3481C1.28077 16.5721 1.21822 16.7261 1.16724 16.8579C1.09646 17.0428 1.04691 17.1862 1.05396 17.4057C1.06215 17.6496 1.0747 17.8924 1.0647 18.0815C1.05985 18.1678 1.06643 18.2666 1.07739 18.3676C1.09173 18.5014 1.11498 18.6394 1.1272 18.768C1.13725 18.8744 1.12943 18.9678 1.12524 19.0522C1.12393 19.0782 1.12221 19.1032 1.12231 19.1274C1.12626 19.1394 1.13091 19.1516 1.13501 19.1635C1.15981 19.2361 1.18518 19.3037 1.21313 19.3676C1.22294 19.3777 1.23332 19.3884 1.24438 19.3989C1.30078 19.4526 1.37054 19.5108 1.44165 19.5913C1.55433 19.7181 1.63754 19.8516 1.73853 19.9965C1.81692 20.1086 1.90576 20.2264 2.03052 20.3432C2.04813 20.3597 2.06731 20.3767 2.08716 20.394C2.16222 20.4597 2.24575 20.5258 2.32837 20.5893C2.48364 20.7091 2.63752 20.8187 2.73071 20.9106C2.76533 20.9449 2.78669 20.9873 2.80688 21.0288L2.81079 21.0376C3.07114 21.2234 3.34246 21.3858 3.62427 21.5219C3.65064 21.5307 3.67714 21.5389 3.70337 21.5473C3.83098 21.5881 3.95691 21.6225 4.04517 21.6255C4.14123 21.6294 4.35298 21.6981 4.58032 21.7495C4.69765 21.7764 4.81842 21.7996 4.92798 21.813C4.95736 21.8165 4.9862 21.8195 5.01392 21.8217C5.09003 21.8279 5.15578 21.864 5.22485 21.8999C5.2894 21.9332 5.35699 21.9664 5.43677 21.9751C5.47653 21.9793 5.52131 21.978 5.5686 21.976C5.6101 21.9743 5.65392 21.9721 5.69946 21.9731C5.74197 21.9742 5.83299 21.9976 5.95142 22.0249C6.02511 22.0418 6.1093 22.0599 6.19849 22.0756C6.43729 22.0828 6.67875 22.0831 6.92017 22.0776C6.97084 22.0607 7.01516 22.0379 7.05005 22.0083C7.07506 21.987 7.09661 21.9612 7.11841 21.935C7.14808 21.8993 7.17838 21.862 7.21997 21.8325C7.25249 21.8094 7.29093 21.8005 7.31665 21.81C7.32855 21.8145 7.3376 21.8229 7.34595 21.8305C7.35553 21.8392 7.36484 21.8464 7.37524 21.8462C7.3826 21.8457 7.39032 21.8399 7.39966 21.8325C7.41492 21.8204 7.43491 21.8052 7.46509 21.8042C7.57825 21.8008 7.70837 21.8027 7.83521 21.8032C7.97662 21.8038 8.11465 21.8023 8.22485 21.7915C8.34772 21.7794 8.52488 21.7909 8.70337 21.7993C8.82801 21.8052 8.95323 21.8093 9.05981 21.8051C9.16407 21.8011 9.27104 21.7771 9.37427 21.7524C9.43099 21.7387 9.48979 21.7244 9.54321 21.7143C9.60642 21.7026 9.66448 21.6966 9.72095 21.6997C9.74234 21.7009 9.77125 21.7221 9.80786 21.7485C9.83405 21.7672 9.86461 21.7882 9.89771 21.8071C10.0287 21.7884 10.159 21.7698 10.2883 21.7505L10.3772 21.6616C10.4611 21.5852 10.5707 21.5162 10.7268 21.5346C10.7806 21.5407 10.8172 21.5647 10.8518 21.5854C10.8852 21.6057 10.9146 21.6237 10.9524 21.6206C10.9946 21.617 11.0397 21.5898 11.0872 21.56C11.1545 21.5181 11.228 21.4712 11.3137 21.4751C11.3195 21.4753 11.3259 21.4748 11.3323 21.4751C11.3945 21.4774 11.4854 21.4805 11.5842 21.5073C11.7539 21.4639 11.9163 21.4148 12.0647 21.3579C12.1487 21.3242 12.232 21.2908 12.3137 21.2573C12.6771 21.1227 13.096 20.8747 13.1047 20.8706C13.1239 20.8344 13.1424 20.7972 13.1604 20.7602C13.2503 20.5768 13.3763 20.4073 13.5305 20.2807C13.6846 20.1544 13.8584 20.0871 14.0159 20.1255C14.0168 20.1257 14.0178 20.1262 14.0188 20.1264C14.1507 20.0977 14.2847 20.0963 14.4075 20.1206C14.5558 20.1521 14.6798 20.2283 14.762 20.3442C14.9275 20.578 15.1107 20.8146 15.2932 21.0512C15.516 21.3397 15.7405 21.6311 15.9543 21.9282C16.0652 22.082 16.1768 22.2373 16.2854 22.3881C16.3222 22.4392 16.3574 22.4884 16.3948 22.5385C16.4096 22.5584 16.425 22.5777 16.4397 22.5971C16.5974 22.7282 16.7553 22.851 16.8596 22.9419C16.9457 23.017 16.9892 23.0897 17.0266 23.1518C17.0533 23.1954 17.0748 23.2322 17.1086 23.2612C17.1266 23.2765 17.1512 23.2954 17.1819 23.3188C17.3066 23.4149 17.5197 23.5643 17.6868 23.7212C17.7605 23.7911 17.8409 23.8796 17.9153 23.9536C17.9544 23.9929 17.9916 24.0285 18.0168 24.0522C18.0282 24.078 18.0992 24.0794 17.9329 24.0835C18.2813 24.0854 18.3372 24.2031 18.3733 24.2055C18.4709 24.2569 18.4539 24.2435 18.4973 24.268C18.5319 24.2869 18.5817 24.3114 18.635 24.3315C18.7382 24.3707 18.855 24.3954 18.9202 24.3725C19.0004 24.3451 19.0654 24.3609 19.1721 24.3813C19.242 24.3952 19.3332 24.4116 19.4602 24.4126C19.6037 24.4137 19.7094 24.4282 19.801 24.4399C19.9267 24.4564 20.0236 24.4672 20.1633 24.4126C20.3127 24.3523 20.4733 24.3031 20.6077 24.2963C20.6671 24.2935 20.7326 24.2821 20.804 24.269C20.9012 24.2512 20.991 24.2333 21.0862 24.2319C21.1064 24.2317 21.1265 24.2326 21.1458 24.2348C21.1986 24.2412 21.2455 24.256 21.2893 24.269C21.3076 24.2745 21.3253 24.2803 21.342 24.2846C21.4004 24.2731 21.4585 24.2612 21.5159 24.2485C21.524 24.2417 21.5323 24.2338 21.5413 24.226C21.5868 24.1865 21.6421 24.138 21.7141 24.103C21.828 24.0476 21.935 24.0389 22.0471 24.0268C22.1341 24.0174 22.2245 24.0056 22.3176 23.9672C22.3812 23.941 22.449 23.9009 22.5129 23.8598C22.6084 23.7989 22.6947 23.7343 22.7649 23.7094C22.7912 23.7003 22.8222 23.7062 22.8528 23.7114L22.8596 23.7124C22.9919 23.619 23.1133 23.5134 23.2268 23.396C23.2442 23.3785 23.2623 23.3605 23.2795 23.3432C23.2903 23.3273 23.3017 23.3103 23.3127 23.2944C23.3664 23.2166 23.4197 23.1404 23.4417 23.0776C23.4662 23.009 23.5719 22.8914 23.6799 22.769C23.7508 22.6887 23.822 22.6054 23.8733 22.5327C23.9035 22.4902 23.9534 22.4741 24.0032 22.4575C24.0501 22.4415 24.098 22.4246 24.1301 22.3872C24.1466 22.368 24.1593 22.344 24.1731 22.3178C24.1848 22.2953 24.1968 22.2714 24.2112 22.2495C24.2246 22.2292 24.271 22.1974 24.3235 22.1606C24.3557 22.1382 24.3919 22.1126 24.4221 22.0874C24.4607 22.0263 24.478 21.9631 24.4553 21.9956C24.4611 21.9667 24.4651 21.9408 24.468 21.9155C24.455 21.8925 24.4356 21.8712 24.4084 21.853C24.3889 21.8401 24.364 21.8286 24.3391 21.8169C24.3053 21.8005 24.27 21.7844 24.2424 21.7661C24.2212 21.7517 24.2136 21.737 24.2239 21.728C24.2288 21.7241 24.2376 21.7207 24.2454 21.7182C24.2544 21.7153 24.2628 21.7128 24.2629 21.7085C24.2628 21.7054 24.2573 21.7012 24.2502 21.6967C24.2388 21.6896 24.2236 21.6801 24.2239 21.6674C24.2249 21.6193 24.2314 21.5576 24.2356 21.4926C24.2404 21.4202 24.2428 21.3425 24.2346 21.2807C24.2256 21.2115 24.2405 21.1075 24.2532 20.9995C24.2622 20.9251 24.2697 20.8464 24.2688 20.7817C24.268 20.7429 24.2606 20.7064 24.2502 20.6674C24.2428 20.6391 24.2344 20.6109 24.2258 20.5835C24.2009 20.5034 24.1771 20.4255 24.1887 20.3559C24.1913 20.3418 24.2141 20.3211 24.2424 20.2963C24.2625 20.279 24.2854 20.2582 24.3059 20.2358C24.2952 20.1496 24.2854 20.0643 24.2766 19.978C24.273 19.9755 24.2687 19.9728 24.2649 19.9702C24.1773 19.9106 24.0581 19.8265 24.1057 19.6831C24.1118 19.6648 24.1215 19.6489 24.1331 19.6352L24.2024 19.5659C24.2111 19.5548 24.2171 19.5428 24.218 19.5297C24.2199 19.5005 24.1992 19.4689 24.177 19.435C24.1457 19.3877 24.1101 19.331 24.1292 19.271C24.1304 19.267 24.1327 19.2627 24.134 19.2583C24.1474 19.2145 24.1666 19.1477 24.2141 19.0805C24.2062 18.8956 24.2012 18.7101 24.1975 18.5249C24.1938 18.3371 24.1937 18.1487 24.1926 17.9604C24.066 17.9243 23.9315 17.8642 23.7913 17.7612C23.5469 17.5479 23.6179 17.3628 23.6936 17.2251C23.7738 17.0813 23.9673 17.0148 24.0383 16.9047C24.0918 16.7997 24.2563 16.7258 24.4592 16.7026C24.478 16.7006 24.4965 16.6989 24.5159 16.6967C24.9063 16.6527 25.3035 16.6008 25.6965 16.5503C26.0754 16.5013 26.4541 16.4529 26.8284 16.4057C26.9503 16.3903 27.071 16.3753 27.1897 16.3598C27.5284 16.316 27.853 16.2642 28.1721 16.1919C28.205 16.1844 28.238 16.1762 28.2708 16.1684C28.5264 16.0596 28.7749 15.9368 28.9534 15.8569C29.058 15.8102 29.1476 15.785 29.2278 15.7661C29.2599 15.7586 29.2919 15.752 29.3215 15.7456C29.3913 15.7306 29.4537 15.7158 29.512 15.6889C29.5431 15.6745 29.5861 15.654 29.637 15.6284C29.8453 15.524 30.198 15.3368 30.5452 15.2085C30.6993 15.1518 30.8853 15.0968 31.0627 15.0424C31.3158 14.9651 31.5523 14.889 31.6545 14.8188C31.8198 14.7053 32.0266 14.6096 32.2141 14.5239C32.2304 14.5164 32.2466 14.5094 32.262 14.5024C32.4544 14.4146 32.6222 14.3373 32.6936 14.2641C32.7673 14.1862 32.9048 14.1086 32.8948 14.1401C32.8889 14.1506 32.8717 14.1809 32.8713 14.1909C32.9208 14.1194 32.9764 14.0354 33.0305 13.9292C33.1157 13.7613 33.1798 13.6477 33.2317 13.5473C33.3034 13.4065 33.3526 13.2914 33.343 13.1108C33.3318 12.9101 33.3152 12.7037 33.3274 12.5395C33.333 12.4641 33.3287 12.3782 33.3215 12.2876C33.3121 12.1675 33.2974 12.0407 33.2971 11.9223C33.2971 11.906 33.2982 11.8893 33.2991 11.8735C33.3027 11.7884 33.3186 11.7139 33.3333 11.6469C33.3387 11.6223 33.3436 11.5978 33.3479 11.5747C33.3363 11.4915 33.3246 11.4081 33.3127 11.3247C33.306 11.3119 33.2989 11.2975 33.2913 11.2837C33.2524 11.2131 33.2043 11.1256 33.1721 11.0151C33.1212 10.8392 33.1194 10.6803 33.1174 10.5131C33.1159 10.3834 33.1139 10.2476 33.0881 10.0991C33.0704 9.99748 33.0417 9.88178 33.011 9.77486C32.9698 9.62596 32.9079 9.45806 32.9163 9.46139C32.9157 9.46023 32.9147 9.45866 32.9143 9.45748C32.9067 9.43561 32.9038 9.41334 32.9026 9.39108V9.31393C32.7629 9.04289 32.6246 8.7575 32.509 8.45065C32.4957 8.42539 32.4819 8.39929 32.469 8.3735C32.4055 8.24665 32.3492 8.11642 32.2971 8.03268C32.2934 8.02661 32.2902 8.01854 32.2864 8.01119C32.2665 8.01118 32.2385 8.01063 32.2112 8.01608C32.1664 8.02069 32.1204 7.99519 32.0667 7.97018C32.0168 7.94685 31.9585 7.92402 31.8958 7.92818C31.8631 7.93033 31.8282 7.93826 31.7903 7.94772C31.7556 7.95609 31.722 7.96582 31.6838 7.97213C31.6475 7.97793 31.5678 7.96868 31.4651 7.96041C31.4062 7.95608 31.3454 7.95173 31.2747 7.94967C31.2659 7.94935 31.2563 7.94893 31.2473 7.94869C31.0423 7.9782 30.8325 8.01317 30.6223 8.04928C30.581 8.07234 30.5457 8.10066 30.5188 8.13424C30.4995 8.15829 30.4833 8.1859 30.468 8.21432C30.4469 8.25313 30.4249 8.29353 30.3918 8.3276C30.3661 8.35418 30.3322 8.36836 30.3088 8.36178C30.298 8.35861 30.2887 8.35074 30.2805 8.3442C30.2712 8.33684 30.2621 8.33034 30.2532 8.3315C30.2467 8.33267 30.24 8.33974 30.2327 8.34811C30.2206 8.36174 30.2049 8.37998 30.178 8.38424C30.0781 8.39954 29.961 8.40954 29.8489 8.42037C29.7224 8.43267 29.6001 8.44535 29.5032 8.46432C29.3948 8.48548 29.2353 8.48632 29.0754 8.48775C28.9641 8.48872 28.8519 8.4901 28.7571 8.4985C28.6639 8.50681 28.5697 8.53465 28.4788 8.56197C28.3698 8.59474 28.2646 8.62645 28.1702 8.62154C28.1511 8.62012 28.1236 8.59953 28.0901 8.57369C28.0663 8.55533 28.0383 8.53449 28.0081 8.51608C27.8921 8.53537 27.7755 8.55398 27.6594 8.57174C27.6559 8.57574 27.6513 8.58028 27.6477 8.58443C27.5653 8.67913 27.453 8.80815 27.259 8.77584C27.2102 8.76746 27.1748 8.74253 27.1438 8.72018C27.1134 8.6983 27.0856 8.67827 27.051 8.67916C27.0121 8.68032 26.9684 8.70465 26.9221 8.73092C26.8569 8.76799 26.7833 8.8094 26.7004 8.79733C26.6951 8.79656 26.6888 8.79622 26.6829 8.79537C26.6238 8.78679 26.5329 8.77388 26.4407 8.73385C26.1899 8.76329 25.938 8.79174 25.6868 8.81783C25.528 8.83444 25.3699 8.84939 25.2131 8.86471C25.0125 8.88458 24.8142 8.90246 24.6155 8.92135C24.5214 9.01443 24.3985 9.07738 24.26 9.09322C24.1 9.11128 23.935 9.07051 23.7991 8.97799C23.6634 8.88525 23.5659 8.7458 23.5256 8.58932C23.4854 8.43279 23.5065 8.27109 23.5784 8.14205C23.5889 8.12323 23.5982 8.10328 23.6086 8.08443C23.6127 8.07689 23.617 8.06945 23.6213 8.06197C23.711 7.9002 23.7989 7.74004 23.8635 7.59908C23.8911 7.53841 23.9148 7.47969 23.9319 7.42818C23.9453 7.38745 23.953 7.35637 23.9592 7.32467C23.9598 7.08049 23.9625 6.8403 23.968 6.60201C23.9738 6.35459 23.9783 6.10881 23.9778 5.86666C23.9777 5.84202 23.977 5.81706 23.9768 5.79244C23.9288 5.59156 23.8772 5.3978 23.8499 5.26412C23.8275 5.15386 23.8386 5.07061 23.8469 5.00045C23.8525 4.95181 23.8569 4.90949 23.8479 4.86861C23.843 4.84669 23.8354 4.81762 23.8254 4.78268C23.7854 4.63924 23.7063 4.41192 23.6682 4.23873C23.6649 4.22331 23.6621 4.20749 23.6594 4.19186C23.6281 4.08812 23.6013 3.97165 23.5774 3.8608C23.5344 3.66252 23.4996 3.48059 23.4495 3.40377C23.3614 3.26894 23.3053 3.09613 23.2561 2.94869C23.2093 2.8079 23.1672 2.6897 23.1116 2.64205C23.0457 2.58568 23.0261 2.52015 22.9963 2.43404C22.9877 2.40901 22.9775 2.38164 22.9661 2.35494C22.9126 2.26053 22.9064 2.23214 22.8694 2.17037C22.8029 2.05717 22.7639 1.97095 22.7288 1.89791C22.6788 1.79577 22.6351 1.71793 22.5198 1.66061C22.3917 1.59742 22.2675 1.53504 22.1858 1.46432C22.1487 1.43206 22.0999 1.40355 22.0491 1.37643C21.9812 1.34009 21.9089 1.30627 21.8469 1.26315C21.7965 1.22783 21.7602 1.17992 21.7258 1.13815C21.7151 1.1251 21.7039 1.11215 21.6936 1.10104C21.6459 1.08598 21.5961 1.07227 21.5471 1.061C21.5381 1.06392 21.5277 1.06723 21.5178 1.07076C21.467 1.08899 21.406 1.11325 21.3381 1.12057C21.2293 1.13209 21.141 1.10687 21.0413 1.08443C21.0347 1.08297 21.0274 1.08095 21.0208 1.07955C20.9378 1.06412 20.8512 1.05062 20.7542 1.05514C20.6805 1.05855 20.5975 1.0714 20.5159 1.08541ZM20.0647 12.9614C20.1128 13.2886 20.1601 13.664 20.2083 14.0874C20.266 14.5011 20.3294 14.934 20.3967 15.3862C20.4641 15.8384 20.5215 16.2622 20.5696 16.6567C20.6177 17.0417 20.661 17.3746 20.6995 17.6538C20.7379 17.923 20.7571 18.0913 20.7571 18.1587H20.136L19.4583 15.6606C19.3235 15.9975 19.1595 16.3204 18.967 16.6284C18.7746 16.9364 18.5623 17.206 18.3313 17.437C18.11 17.6678 17.8744 17.8511 17.6243 17.9858C17.3741 18.1108 17.1235 18.1632 16.8733 18.144C16.6328 18.1151 16.3972 17.9994 16.1663 17.7973C15.9354 17.5953 15.7189 17.278 15.5168 16.8452C15.3243 16.4024 15.1554 15.8341 15.011 15.1411C14.8666 14.4481 14.761 13.5959 14.6936 12.5854C14.6938 12.5374 14.7229 12.4898 14.7805 12.4419C14.8479 12.3938 14.9244 12.3545 15.011 12.3256C15.1072 12.2968 15.1988 12.2777 15.2854 12.268C15.372 12.2584 15.4344 12.2735 15.4729 12.312C15.5307 13.5052 15.6413 14.4582 15.8049 15.1704C15.9782 15.8729 16.1713 16.3881 16.3831 16.7153C16.6043 17.0422 16.84 17.2105 17.0901 17.2202C17.3403 17.2202 17.5858 17.1145 17.8264 16.9028C18.067 16.6814 18.2884 16.3827 18.4905 16.0073C18.7022 15.6319 18.8712 15.2275 18.9963 14.7944C19.131 14.3615 19.2126 13.9285 19.2415 13.4956C19.2703 13.0625 19.2321 12.6772 19.1262 12.3403L19.9924 12.2397C20.0021 12.3841 20.0262 12.6248 20.0647 12.9614ZM14.6721 8.95846C15.1706 8.9586 15.5745 9.36329 15.5745 9.86178C15.5742 10.3601 15.1704 10.764 14.6721 10.7641C14.1737 10.7641 13.769 10.3601 13.7688 9.86178C13.7688 9.3632 14.1735 8.95846 14.6721 8.95846ZM19.4602 8.69967C19.9587 8.69975 20.3625 9.10349 20.3625 9.60201C20.3625 10.1005 19.9587 10.5043 19.4602 10.5044C18.9617 10.5044 18.5569 10.1006 18.5569 9.60201C18.5569 9.10344 18.9616 8.69967 19.4602 8.69967ZM32.1965 7.81295C32.1972 7.83438 32.2208 7.87807 32.2454 7.91549C32.2391 7.89772 32.2321 7.87812 32.2258 7.85787C32.2094 7.80355 32.1936 7.78086 32.1965 7.81295ZM14.1614 4.49557C14.161 4.49335 14.1608 4.49095 14.1604 4.48873C14.1574 4.47049 14.1538 4.45225 14.1506 4.43502C14.1375 4.41133 14.1242 4.3878 14.1116 4.36861L14.1614 4.49557Z" fill="white"/>
</svg>
